<svg width="57" height="57" viewBox="0 0 57 57" fill="none" xmlns="http://www.w3.org/2000/svg">
<rect x="1.36743" y="1.58679" width="54.5" height="54.5" rx="11.25" fill="white"/>
<rect x="1.36743" y="1.58679" width="54.5" height="54.5" rx="11.25" stroke="#CACCC7" stroke-width="1.5"/>
<g clip-path="url(#clip0_0_41)">
<path d="M31.6204 20.8368C31.8794 20.8368 32.2044 20.9048 32.4654 20.9688C33.3754 21.1888 34.4544 21.4618 35.2204 22.0368C35.9334 22.5718 36.4874 23.5048 36.9154 24.4528C37.8054 26.4278 38.4244 29.0608 38.6384 31.0628C38.7404 32.0128 38.7654 32.9688 38.5824 33.6118C38.4924 33.9278 38.2974 34.1658 38.1604 34.3118C37.7424 34.7548 37.2044 35.0858 36.6724 35.3868L36.4084 35.5358C36.2346 35.6325 36.0595 35.7272 35.8834 35.8198L35.3614 36.0898L34.6444 36.4468L34.0674 36.7308C33.8563 36.8366 33.6145 36.8642 33.3849 36.8088C33.1554 36.7534 32.9528 36.6185 32.8132 36.4281C32.6735 36.2376 32.6058 36.0039 32.6219 35.7683C32.6381 35.5327 32.7371 35.3104 32.9014 35.1408L32.4674 34.2728C31.2195 34.652 29.9217 34.8421 28.6174 34.8368C27.2474 34.8368 25.9404 34.6368 24.7674 34.2728L24.3344 35.1388C24.4994 35.3081 24.599 35.5304 24.6157 35.7662C24.6323 36.002 24.5649 36.236 24.4254 36.4269C24.2859 36.6177 24.0833 36.7529 23.8536 36.8085C23.6238 36.8642 23.3818 36.8366 23.1704 36.7308L22.6264 36.4608C22.0224 36.1628 21.4184 35.8648 20.8304 35.5358C20.2164 35.1928 19.5654 34.8278 19.0784 34.3108C18.8841 34.1143 18.7394 33.8744 18.6564 33.6108C18.4724 32.9688 18.4984 32.0138 18.5994 31.0628C18.8134 29.0608 19.4324 26.4278 20.3234 24.4528C20.7504 23.5048 21.3044 22.5718 22.0174 22.0368C22.7834 21.4618 23.8624 21.1888 24.7724 20.9688C25.0334 20.9048 25.3574 20.8368 25.6174 20.8368C25.7613 20.8367 25.9034 20.8676 26.0342 20.9274C26.165 20.9872 26.2813 21.0745 26.3753 21.1834C26.4693 21.2923 26.5387 21.4201 26.5787 21.5583C26.6188 21.6964 26.6286 21.8415 26.6074 21.9838C27.2729 21.8853 27.9447 21.8362 28.6174 21.8368C29.3084 21.8368 29.9834 21.8868 30.6314 21.9848C30.6101 21.8425 30.6198 21.6972 30.6598 21.559C30.6998 21.4207 30.7691 21.2927 30.8631 21.1837C30.9571 21.0747 31.0735 20.9873 31.2044 20.9274C31.3353 20.8676 31.4765 20.8366 31.6204 20.8368ZM32.9754 23.1998C32.8254 23.1518 32.7894 23.1728 32.7354 23.2628L32.6734 23.3748C32.5118 23.6519 32.2664 23.8705 31.9726 23.9991C31.6787 24.1278 31.3517 24.1599 31.0384 24.0908C30.2428 23.92 29.4312 23.8348 28.6174 23.8368C27.7654 23.8368 26.9504 23.9268 26.1974 24.0908C25.8842 24.1599 25.5571 24.1278 25.2633 23.9991C24.9695 23.8705 24.7241 23.6519 24.5624 23.3748L24.5004 23.2638C24.4474 23.1738 24.4114 23.1528 24.2624 23.1998C23.9064 23.3128 23.5244 23.4338 23.2174 23.6368C22.9304 23.8518 22.5474 24.3868 22.1464 25.2758C21.3804 26.9728 20.7804 29.4798 20.5884 31.2758C20.5484 31.6548 20.5274 31.9798 20.5224 32.2478V32.5418C20.5264 32.7198 20.5394 32.8608 20.5574 32.9638C20.8114 33.2118 21.1254 33.4068 21.4404 33.5858L22.1224 33.9628L22.5684 34.1978L22.9324 33.4698C22.7562 33.3056 22.6452 33.0833 22.6197 32.8437C22.5943 32.6042 22.6562 32.3635 22.794 32.166C22.9318 31.9684 23.1363 31.8273 23.3699 31.7685C23.6035 31.7096 23.8505 31.7371 24.0654 31.8458C25.2814 32.4568 26.8634 32.8368 28.6174 32.8368C30.3704 32.8368 31.9534 32.4548 33.1694 31.8468C33.3752 31.7437 33.6102 31.7148 33.8349 31.7648C34.0595 31.8149 34.26 31.9409 34.4025 32.1216C34.545 32.3023 34.6209 32.5267 34.6172 32.7568C34.6136 32.9869 34.5306 33.2087 34.3824 33.3848L34.3024 33.4698L34.6664 34.1998C34.9644 34.0458 35.2634 33.8828 35.5634 33.7168C35.9534 33.5008 36.3634 33.2738 36.6804 32.9638C36.6984 32.8608 36.7104 32.7198 36.7154 32.5418V32.2478C36.7073 31.9227 36.6853 31.598 36.6494 31.2748C36.4574 29.4798 35.8574 26.9728 35.0914 25.2748C34.6914 24.3868 34.3074 23.8518 34.0214 23.6368C33.7134 23.4338 33.3324 23.3128 32.9754 23.1998ZM25.3674 27.3368C25.8316 27.3368 26.2767 27.5212 26.6049 27.8494C26.9331 28.1775 27.1174 28.6227 27.1174 29.0868C27.1174 29.5509 26.9331 29.996 26.6049 30.3242C26.2767 30.6524 25.8316 30.8368 25.3674 30.8368C24.9033 30.8368 24.4582 30.6524 24.13 30.3242C23.8018 29.996 23.6174 29.5509 23.6174 29.0868C23.6174 28.6227 23.8018 28.1775 24.13 27.8494C24.4582 27.5212 24.9033 27.3368 25.3674 27.3368ZM31.8674 27.3368C32.3316 27.3368 32.7767 27.5212 33.1049 27.8494C33.4331 28.1775 33.6174 28.6227 33.6174 29.0868C33.6174 29.5509 33.4331 29.996 33.1049 30.3242C32.7767 30.6524 32.3316 30.8368 31.8674 30.8368C31.4033 30.8368 30.9582 30.6524 30.63 30.3242C30.3018 29.996 30.1174 29.5509 30.1174 29.0868C30.1174 28.6227 30.3018 28.1775 30.63 27.8494C30.9582 27.5212 31.4033 27.3368 31.8674 27.3368Z" fill="black"/>
</g>
<defs>
<clipPath id="clip0_0_41">
<rect width="24" height="24" fill="white" transform="translate(16.6174 16.8368)"/>
</clipPath>
</defs>
</svg>
