<svg width="42" height="42" viewBox="0 0 42 42" fill="none" xmlns="http://www.w3.org/2000/svg">
<rect x="1.18732" y="1.06982" width="40.0477" height="40.0477" rx="8.29594" fill="#1B1F17"/>
<rect x="1.18732" y="1.06982" width="40.0477" height="40.0477" rx="8.29594" stroke="#30342C"/>
<g clip-path="url(#clip0_0_593)">
<path d="M23.4124 15.2297C23.6022 15.2297 23.8405 15.2796 24.0318 15.3265C24.6988 15.4878 25.4897 15.6879 26.0512 16.1093C26.5738 16.5015 26.9799 17.1854 27.2936 17.8802C27.946 19.3279 28.3997 21.2579 28.5565 22.7253C28.6313 23.4217 28.6496 24.1224 28.5155 24.5937C28.4495 24.8254 28.3066 24.9998 28.2062 25.1068C27.8998 25.4316 27.5054 25.6742 27.1155 25.8948L26.922 26.004C26.7945 26.0749 26.6662 26.1443 26.5371 26.2122L26.1545 26.4101L25.629 26.6718L25.206 26.88C25.0513 26.9575 24.874 26.9777 24.7058 26.9371C24.5375 26.8965 24.389 26.7976 24.2867 26.6581C24.1843 26.5185 24.1346 26.3471 24.1465 26.1744C24.1583 26.0017 24.2309 25.8388 24.3514 25.7145L24.0332 25.0783C23.1185 25.3562 22.1673 25.4956 21.2112 25.4917C20.207 25.4917 19.249 25.3451 18.3892 25.0783L18.0718 25.713C18.1927 25.8371 18.2657 26.0001 18.2779 26.1729C18.2902 26.3457 18.2407 26.5173 18.1385 26.6572C18.0362 26.797 17.8877 26.8962 17.7193 26.9369C17.5509 26.9777 17.3735 26.9575 17.2186 26.88L16.8198 26.6821C16.3771 26.4636 15.9344 26.2452 15.5034 26.004C15.0533 25.7526 14.5761 25.4851 14.2192 25.1061C14.0767 24.9621 13.9707 24.7862 13.9098 24.593C13.775 24.1224 13.794 23.4224 13.8681 22.7253C14.0249 21.2579 14.4786 19.3279 15.1317 17.8802C15.4447 17.1854 15.8508 16.5015 16.3734 16.1093C16.9349 15.6879 17.7258 15.4878 18.3928 15.3265C18.5842 15.2796 18.8216 15.2297 19.0122 15.2297C19.1176 15.2296 19.2218 15.2523 19.3177 15.2961C19.4136 15.34 19.4989 15.404 19.5677 15.4838C19.6366 15.5636 19.6875 15.6573 19.7168 15.7586C19.7462 15.8598 19.7534 15.9662 19.7379 16.0705C20.2257 15.9983 20.7181 15.9623 21.2112 15.9627C21.7177 15.9627 22.2125 15.9994 22.6875 16.0712C22.6718 15.9669 22.6789 15.8604 22.7082 15.7591C22.7376 15.6577 22.7884 15.5639 22.8573 15.484C22.9262 15.4041 23.0115 15.3401 23.1074 15.2962C23.2034 15.2523 23.3069 15.2296 23.4124 15.2297ZM24.4056 16.9618C24.2956 16.9266 24.2693 16.942 24.2297 17.008L24.1842 17.0901C24.0658 17.2932 23.8859 17.4534 23.6705 17.5477C23.4551 17.642 23.2154 17.6656 22.9858 17.6149C22.4026 17.4897 21.8077 17.4273 21.2112 17.4287C20.5867 17.4287 19.9893 17.4947 19.4374 17.6149C19.2078 17.6656 18.968 17.642 18.7526 17.5477C18.5373 17.4534 18.3574 17.2932 18.2389 17.0901L18.1935 17.0087C18.1546 16.9427 18.1282 16.9274 18.019 16.9618C17.7581 17.0446 17.4781 17.1333 17.253 17.2821C17.0427 17.4397 16.7619 17.8319 16.468 18.4835C15.9065 19.7274 15.4667 21.565 15.326 22.8815C15.2967 23.1593 15.2813 23.3975 15.2776 23.5939V23.8094C15.2805 23.9399 15.2901 24.0433 15.3033 24.1188C15.4894 24.3006 15.7196 24.4435 15.9505 24.5747L16.4504 24.851L16.7773 25.0233L17.0441 24.4897C16.915 24.3693 16.8336 24.2064 16.8149 24.0308C16.7963 23.8552 16.8416 23.6788 16.9427 23.534C17.0437 23.3892 17.1936 23.2857 17.3648 23.2426C17.536 23.1995 17.7171 23.2196 17.8746 23.2993C18.7659 23.7471 19.9255 24.0257 21.2112 24.0257C22.4961 24.0257 23.6565 23.7457 24.5478 23.3C24.6986 23.2245 24.8709 23.2032 25.0356 23.2399C25.2002 23.2766 25.3472 23.369 25.4516 23.5015C25.5561 23.6339 25.6117 23.7983 25.609 23.967C25.6063 24.1357 25.5455 24.2983 25.4369 24.4274L25.3783 24.4897L25.6451 25.0248C25.8635 24.9119 26.0827 24.7924 26.3026 24.6707C26.5885 24.5124 26.889 24.346 27.1213 24.1188C27.1345 24.0433 27.1433 23.9399 27.147 23.8094V23.5939C27.1411 23.3556 27.1249 23.1177 27.0986 22.8807C26.9579 21.565 26.5181 19.7274 25.9566 18.4828C25.6634 17.8319 25.3819 17.4397 25.1723 17.2821C24.9465 17.1333 24.6673 17.0446 24.4056 16.9618ZM18.829 19.9942C19.1692 19.9942 19.4954 20.1293 19.736 20.3699C19.9766 20.6105 20.1117 20.9367 20.1117 21.2769C20.1117 21.6172 19.9766 21.9434 19.736 22.184C19.4954 22.4245 19.1692 22.5597 18.829 22.5597C18.4888 22.5597 18.1625 22.4245 17.9219 22.184C17.6814 21.9434 17.5462 21.6172 17.5462 21.2769C17.5462 20.9367 17.6814 20.6105 17.9219 20.3699C18.1625 20.1293 18.4888 19.9942 18.829 19.9942ZM23.5934 19.9942C23.9336 19.9942 24.2599 20.1293 24.5005 20.3699C24.741 20.6105 24.8762 20.9367 24.8762 21.2769C24.8762 21.6172 24.741 21.9434 24.5005 22.184C24.2599 22.4245 23.9336 22.5597 23.5934 22.5597C23.2532 22.5597 22.927 22.4245 22.6864 22.184C22.4458 21.9434 22.3107 21.6172 22.3107 21.2769C22.3107 20.9367 22.4458 20.6105 22.6864 20.3699C22.927 20.1293 23.2532 19.9942 23.5934 19.9942Z" fill="white"/>
</g>
<defs>
<clipPath id="clip0_0_593">
<rect width="17.5919" height="17.5919" fill="white" transform="translate(12.4153 12.2979)"/>
</clipPath>
</defs>
</svg>
