<svg width="42" height="42" viewBox="0 0 42 42" fill="none" xmlns="http://www.w3.org/2000/svg">
<rect x="0.874634" y="1.06982" width="40.0477" height="40.0477" rx="8.29594" fill="#1B1F17"/>
<rect x="0.874634" y="1.06982" width="40.0477" height="40.0477" rx="8.29594" stroke="#30342C"/>
<g clip-path="url(#clip0_0_601)">
<path fill-rule="evenodd" clip-rule="evenodd" d="M24.3269 13.3794C25.4635 13.3794 26.5536 13.8309 27.3573 14.6346C28.161 15.4383 28.6126 16.5284 28.6126 17.665V24.5221C28.6126 25.6587 28.161 26.7488 27.3573 27.5525C26.5536 28.3562 25.4635 28.8077 24.3269 28.8077H17.4699C16.3333 28.8077 15.2432 28.3562 14.4395 27.5525C13.6358 26.7488 13.1842 25.6587 13.1842 24.5221V17.665C13.1842 16.5284 13.6358 15.4383 14.4395 14.6346C15.2432 13.8309 16.3333 13.3794 17.4699 13.3794H24.3269ZM24.3269 15.0937H17.4699C16.7879 15.0937 16.1339 15.3646 15.6516 15.8468C15.1694 16.329 14.8985 16.9831 14.8985 17.665V24.5221C14.8985 25.2041 15.1694 25.8581 15.6516 26.3403C16.1339 26.8226 16.7879 27.0935 17.4699 27.0935H24.3269C25.0089 27.0935 25.6629 26.8226 26.1452 26.3403C26.6274 25.8581 26.8983 25.2041 26.8983 24.5221V17.665C26.8983 16.9831 26.6274 16.329 26.1452 15.8468C25.6629 15.3646 25.0089 15.0937 24.3269 15.0937ZM20.8984 17.665C21.8077 17.665 22.6798 18.0263 23.3227 18.6692C23.9657 19.3122 24.3269 20.1843 24.3269 21.0936C24.3269 22.0029 23.9657 22.8749 23.3227 23.5179C22.6798 24.1609 21.8077 24.5221 20.8984 24.5221C19.9891 24.5221 19.117 24.1609 18.4741 23.5179C17.8311 22.8749 17.4699 22.0029 17.4699 21.0936C17.4699 20.1843 17.8311 19.3122 18.4741 18.6692C19.117 18.0263 19.9891 17.665 20.8984 17.665ZM20.8984 19.3793C20.4437 19.3793 20.0077 19.5599 19.6862 19.8814C19.3647 20.2029 19.1841 20.6389 19.1841 21.0936C19.1841 21.5482 19.3647 21.9842 19.6862 22.3057C20.0077 22.6272 20.4437 22.8078 20.8984 22.8078C21.353 22.8078 21.7891 22.6272 22.1106 22.3057C22.432 21.9842 22.6127 21.5482 22.6127 21.0936C22.6127 20.6389 22.432 20.2029 22.1106 19.8814C21.7891 19.5599 21.353 19.3793 20.8984 19.3793ZM24.7555 16.3793C24.9828 16.3793 25.2008 16.4697 25.3616 16.6304C25.5223 16.7911 25.6126 17.0092 25.6126 17.2365C25.6126 17.4638 25.5223 17.6818 25.3616 17.8426C25.2008 18.0033 24.9828 18.0936 24.7555 18.0936C24.5282 18.0936 24.3101 18.0033 24.1494 17.8426C23.9887 17.6818 23.8984 17.4638 23.8984 17.2365C23.8984 17.0092 23.9887 16.7911 24.1494 16.6304C24.3101 16.4697 24.5282 16.3793 24.7555 16.3793Z" fill="white"/>
</g>
<defs>
<clipPath id="clip0_0_601">
<rect width="17.5919" height="17.5919" fill="white" transform="translate(12.1024 12.2979)"/>
</clipPath>
</defs>
</svg>
