<svg width="157" height="49" viewBox="0 0 157 49" fill="none" xmlns="http://www.w3.org/2000/svg">
<path d="M73.1392 23.1655C72.929 23.0741 72.6501 22.9095 72.3027 22.6718C71.9644 22.4341 71.6124 22.169 71.2467 21.8764C70.8901 21.593 70.5701 21.3232 70.2867 21.0672C70.0032 20.8021 69.8067 20.5964 69.697 20.4501C69.5598 20.5507 69.3404 20.6741 69.0387 20.8204C68.7461 20.9575 68.3895 21.0764 67.969 21.177C67.5484 21.2775 67.0775 21.3278 66.5564 21.3278C65.3861 21.3278 64.3301 21.1038 63.3884 20.6558C62.4467 20.1987 61.6421 19.5724 60.9747 18.777C60.3072 17.9815 59.7952 17.0581 59.4387 16.0067C59.0821 14.9461 58.9038 13.8078 58.9038 12.5918C58.9038 11.257 59.0867 10.0273 59.4524 8.90268C59.8272 7.77811 60.3621 6.79982 61.057 5.96782C61.7518 5.12668 62.5884 4.47754 63.5667 4.02039C64.5541 3.55411 65.6695 3.32097 66.913 3.32097C68.7232 3.32097 70.2044 3.69582 71.3564 4.44554C72.5084 5.18611 73.3587 6.21011 73.9072 7.51754C74.4558 8.81582 74.7301 10.3107 74.7301 12.0021C74.7301 12.9255 74.6707 13.8124 74.5518 14.6627C74.433 15.5038 74.209 16.2764 73.8798 16.9804C73.5598 17.6753 73.1027 18.2695 72.5084 18.7633C72.8558 19.1838 73.2992 19.5724 73.8387 19.929C74.3781 20.2764 74.8992 20.5598 75.4021 20.7792C75.137 21.1907 74.7895 21.6112 74.3598 22.041C73.9392 22.4798 73.5324 22.8547 73.1392 23.1655ZM67.7632 17.2135C67.6352 17.0855 67.4752 16.8844 67.2832 16.6101C67.0912 16.3267 66.9038 16.025 66.721 15.705C66.5381 15.385 66.401 15.1061 66.3095 14.8684C66.4741 14.7312 66.7027 14.5621 66.9952 14.361C67.297 14.1598 67.6078 13.9541 67.9278 13.7438C68.257 13.5335 68.5495 13.3553 68.8055 13.209C68.9701 13.6113 69.185 14.0821 69.4501 14.6215C69.7152 15.1518 70.0032 15.5998 70.3141 15.9655C70.5061 15.6821 70.6615 15.2478 70.7804 14.6627C70.8992 14.0775 70.9587 13.3233 70.9587 12.3998C70.9587 11.2753 70.8215 10.2924 70.5472 9.45125C70.2821 8.61011 69.8661 7.95639 69.2992 7.49011C68.7324 7.02382 67.9918 6.79068 67.0775 6.79068C66.209 6.79068 65.473 7.01011 64.8695 7.44897C64.2752 7.88782 63.8227 8.49582 63.5118 9.27296C63.2101 10.041 63.0592 10.9233 63.0592 11.9198C63.0592 12.8158 63.1781 13.6981 63.4158 14.5667C63.6535 15.4261 64.0284 16.1393 64.5404 16.7061C65.0615 17.2638 65.7427 17.5427 66.5838 17.5427C66.9495 17.5427 67.2238 17.5015 67.4067 17.4193C67.5895 17.3278 67.7084 17.2593 67.7632 17.2135Z" fill="white"/>
<path d="M83.9365 21.561C82.309 21.561 81.029 21.1953 80.0965 20.4638C79.173 19.7324 78.4827 18.6901 78.0256 17.337C77.605 16.121 77.3399 14.6444 77.2302 12.9073C77.1296 11.161 77.0793 9.19068 77.0793 6.99639C77.0793 6.65811 77.0839 6.30611 77.093 5.94039C77.1022 5.57468 77.1113 5.20439 77.1205 4.82954C77.1296 4.44554 77.1387 4.07525 77.1479 3.71868C77.1662 3.36211 77.1799 3.03297 77.189 2.73125C77.5639 2.68554 77.9433 2.65354 78.3273 2.63525C78.7113 2.60782 79.077 2.59411 79.4245 2.59411C79.8907 2.59411 80.3525 2.60782 80.8096 2.63525C81.2667 2.66268 81.6736 2.69468 82.0302 2.73125C81.9753 3.41697 81.925 4.16211 81.8793 4.96668C81.8336 5.77125 81.797 6.59411 81.7696 7.43525C81.7513 8.26725 81.7422 9.07639 81.7422 9.86268C81.7422 10.777 81.7696 11.5907 81.8245 12.3038C81.8793 13.0078 81.9662 13.6113 82.085 14.1141C82.2587 14.8638 82.5193 15.417 82.8667 15.7735C83.2142 16.1301 83.6622 16.3084 84.2107 16.3084C84.8142 16.3084 85.285 16.1027 85.6233 15.6913C85.9707 15.2798 86.213 14.6993 86.3502 13.9495C86.4873 13.1998 86.5559 12.3267 86.5559 11.3301C86.5559 10.9644 86.5467 10.4935 86.5285 9.91754C86.5193 9.33239 86.5056 8.70154 86.4873 8.02496C86.469 7.33925 86.4462 6.66268 86.4187 5.99525C86.3913 5.32782 86.3593 4.72439 86.3227 4.18496C86.2862 3.63639 86.2496 3.21125 86.213 2.90954C86.5787 2.90954 86.9993 2.92782 87.4747 2.96439C87.9593 2.99182 88.4347 3.02382 88.901 3.06039C89.3765 3.09697 89.7879 3.13811 90.1353 3.18382C90.4827 3.22954 90.7067 3.26611 90.8073 3.29354C90.8896 3.77811 90.9536 4.30839 90.9993 4.88439C91.045 5.45125 91.0816 6.04097 91.109 6.65354C91.1365 7.26611 91.1502 7.87868 91.1502 8.49125C91.1502 10.3107 91.0542 12.0113 90.8622 13.593C90.6793 15.1747 90.3319 16.5644 89.8199 17.7621C89.3079 18.9507 88.5765 19.8832 87.6256 20.5598C86.6748 21.2272 85.445 21.561 83.9365 21.561Z" fill="white"/>
<path d="M101.53 21.8352C99.6195 21.8352 98.0561 21.4238 96.8401 20.601C95.6332 19.7781 94.7418 18.6581 94.1658 17.241C93.599 15.8238 93.3155 14.2284 93.3155 12.4547C93.3155 10.6261 93.6355 9.00325 94.2755 7.58611C94.9247 6.16897 95.8572 5.05811 97.0732 4.25354C98.2984 3.43982 99.7841 3.03297 101.53 3.03297C102.984 3.03297 104.232 3.27525 105.274 3.75982C106.317 4.24439 107.167 4.91639 107.825 5.77582C108.493 6.63525 108.982 7.63182 109.293 8.76554C109.604 9.89925 109.759 11.1244 109.759 12.441C109.759 13.6753 109.599 14.8547 109.279 15.9792C108.968 17.1038 108.479 18.105 107.812 18.9827C107.153 19.8604 106.303 20.5553 105.261 21.0672C104.228 21.5793 102.984 21.8352 101.53 21.8352ZM101.572 17.4467C102.504 17.4467 103.281 17.1907 103.903 16.6787C104.534 16.1667 105.005 15.4993 105.316 14.6764C105.626 13.8444 105.782 12.9575 105.782 12.0158C105.782 11.321 105.713 10.6535 105.576 10.0135C105.439 9.36439 105.22 8.78839 104.918 8.28554C104.616 7.78268 104.209 7.38496 103.697 7.09239C103.185 6.79982 102.554 6.65354 101.805 6.65354C100.954 6.65354 100.223 6.90954 99.6104 7.42154C98.9978 7.93354 98.5224 8.62382 98.1841 9.49239C97.855 10.3518 97.6904 11.3164 97.6904 12.3861C97.6904 13.337 97.8138 14.1964 98.0607 14.9644C98.3167 15.7233 98.7281 16.3267 99.295 16.7747C99.871 17.2227 100.63 17.4467 101.572 17.4467Z" fill="white"/>
<path d="M112.523 21.5747C112.523 21.0535 112.509 20.3632 112.481 19.5038C112.463 18.6353 112.436 17.6615 112.399 16.5827C112.363 15.5038 112.317 14.3701 112.262 13.1815C112.207 11.993 112.152 10.809 112.097 9.62954C112.043 8.44097 111.988 7.31182 111.933 6.24211C111.887 5.16325 111.837 4.20325 111.782 3.36211C112.102 3.29811 112.468 3.25696 112.879 3.23868C113.291 3.21125 113.679 3.19754 114.045 3.19754C114.475 3.19754 114.877 3.21582 115.252 3.25239C115.636 3.27982 115.933 3.31182 116.143 3.34839C116.152 3.58611 116.166 3.97011 116.184 4.50039C116.203 5.02154 116.225 5.62497 116.253 6.31068C116.28 6.99639 116.308 7.69582 116.335 8.40896C116.372 9.12211 116.404 9.78039 116.431 10.3838C116.788 10.073 117.176 9.67068 117.597 9.17696C118.027 8.67411 118.47 8.10268 118.927 7.46268C119.393 6.82268 119.851 6.13697 120.299 5.40554C120.747 4.67411 121.172 3.91525 121.574 3.12896C122.287 3.67754 122.991 4.16211 123.686 4.58268C124.39 4.99411 124.888 5.27754 125.181 5.43296C125.071 5.68896 124.856 6.06382 124.536 6.55754C124.216 7.05125 123.828 7.59982 123.371 8.20325C122.923 8.80668 122.429 9.41011 121.889 10.0135C121.35 10.617 120.806 11.1518 120.257 11.6181C120.705 12.1301 121.163 12.6924 121.629 13.305C122.095 13.9084 122.539 14.521 122.959 15.1427C123.389 15.7553 123.782 16.3404 124.139 16.8981C124.495 17.4558 124.792 17.945 125.03 18.3655C125.277 18.7861 125.441 19.097 125.524 19.2981C125.295 19.4535 124.952 19.6547 124.495 19.9015C124.038 20.1484 123.549 20.3907 123.028 20.6284C122.516 20.8661 122.054 21.049 121.643 21.177C121.551 20.9484 121.396 20.6238 121.176 20.2032C120.957 19.7735 120.701 19.2935 120.408 18.7633C120.116 18.2238 119.8 17.6753 119.462 17.1175C119.133 16.5598 118.804 16.0295 118.475 15.5267C118.145 15.0238 117.839 14.5987 117.556 14.2513C117.409 14.3701 117.263 14.4753 117.117 14.5667C116.971 14.649 116.833 14.7267 116.705 14.7998C116.751 15.3575 116.797 15.9747 116.843 16.6513C116.888 17.3187 116.929 17.9678 116.966 18.5987C117.003 19.2295 117.03 19.7735 117.048 20.2307C117.076 20.6878 117.089 20.9804 117.089 21.1084C116.925 21.1175 116.596 21.145 116.102 21.1907C115.608 21.2364 115.041 21.2913 114.401 21.3552C113.771 21.4284 113.144 21.5015 112.523 21.5747Z" fill="white"/>
<path d="M127.63 21.5747C127.63 21.0535 127.616 20.3632 127.589 19.5038C127.57 18.6353 127.543 17.6615 127.506 16.5827C127.47 15.5038 127.424 14.3701 127.369 13.1815C127.314 11.993 127.259 10.809 127.205 9.62954C127.15 8.44097 127.095 7.31182 127.04 6.24211C126.994 5.16325 126.944 4.20325 126.889 3.36211C127.209 3.29811 127.575 3.25696 127.986 3.23868C128.398 3.21125 128.786 3.19754 129.152 3.19754C129.582 3.19754 129.984 3.21582 130.359 3.25239C130.743 3.27982 131.04 3.31182 131.25 3.34839C131.259 3.58611 131.273 3.97011 131.291 4.50039C131.31 5.02154 131.333 5.62497 131.36 6.31068C131.387 6.99639 131.415 7.69582 131.442 8.40896C131.479 9.12211 131.511 9.78039 131.538 10.3838C131.895 10.073 132.283 9.67068 132.704 9.17696C133.134 8.67411 133.577 8.10268 134.034 7.46268C134.501 6.82268 134.958 6.13697 135.406 5.40554C135.854 4.67411 136.279 3.91525 136.681 3.12896C137.394 3.67754 138.098 4.16211 138.793 4.58268C139.497 4.99411 139.995 5.27754 140.288 5.43296C140.178 5.68896 139.963 6.06382 139.643 6.55754C139.323 7.05125 138.935 7.59982 138.478 8.20325C138.03 8.80668 137.536 9.41011 136.997 10.0135C136.457 10.617 135.913 11.1518 135.365 11.6181C135.813 12.1301 136.27 12.6924 136.736 13.305C137.202 13.9084 137.646 14.521 138.066 15.1427C138.496 15.7553 138.889 16.3404 139.246 16.8981C139.602 17.4558 139.899 17.945 140.137 18.3655C140.384 18.7861 140.549 19.097 140.631 19.2981C140.402 19.4535 140.059 19.6547 139.602 19.9015C139.145 20.1484 138.656 20.3907 138.135 20.6284C137.623 20.8661 137.161 21.049 136.75 21.177C136.658 20.9484 136.503 20.6238 136.283 20.2032C136.064 19.7735 135.808 19.2935 135.515 18.7633C135.223 18.2238 134.907 17.6753 134.569 17.1175C134.24 16.5598 133.911 16.0295 133.582 15.5267C133.253 15.0238 132.946 14.5987 132.663 14.2513C132.517 14.3701 132.37 14.4753 132.224 14.5667C132.078 14.649 131.941 14.7267 131.813 14.7998C131.858 15.3575 131.904 15.9747 131.95 16.6513C131.995 17.3187 132.037 17.9678 132.073 18.5987C132.11 19.2295 132.137 19.7735 132.155 20.2307C132.183 20.6878 132.197 20.9804 132.197 21.1084C132.032 21.1175 131.703 21.145 131.209 21.1907C130.715 21.2364 130.149 21.2913 129.509 21.3552C128.878 21.4284 128.251 21.5015 127.63 21.5747Z" fill="white"/>
<path d="M146.179 21.3415C145.951 21.3415 145.635 21.3324 145.233 21.3141C144.831 21.305 144.396 21.2913 143.93 21.273C143.473 21.2638 143.025 21.2501 142.586 21.2318C142.156 21.2135 141.8 21.1953 141.516 21.177C141.617 20.6101 141.754 19.8878 141.928 19.0101C142.111 18.1324 142.321 17.1587 142.559 16.089C142.796 15.0192 143.048 13.9038 143.313 12.7427C143.578 11.5724 143.852 10.4113 144.136 9.25925C144.419 8.10725 144.693 7.01468 144.959 5.98154C145.224 4.94839 145.471 4.02954 145.699 3.22496C146.623 3.10611 147.532 3.01011 148.428 2.93697C149.333 2.85468 150.211 2.81354 151.061 2.81354C151.546 2.81354 152.031 2.82725 152.515 2.85468C153 2.88211 153.48 2.92782 153.955 2.99182C154.129 3.79639 154.307 4.71982 154.49 5.76211C154.673 6.80439 154.856 8.03411 155.039 9.45125C155.231 10.8593 155.418 12.5187 155.601 14.4295C155.793 16.3313 155.985 18.5484 156.177 21.081C155.875 21.1175 155.445 21.1587 154.888 21.2044C154.33 21.2501 153.745 21.2821 153.132 21.3004C152.529 21.3278 151.989 21.3415 151.514 21.3415C151.496 21.0764 151.477 20.7747 151.459 20.4364C151.45 20.0981 151.436 19.737 151.418 19.353C151.4 18.969 151.381 18.5804 151.363 18.1873C151.354 17.7941 151.345 17.4147 151.336 17.049C151.327 16.6833 151.317 16.345 151.308 16.0341C151.016 16.0433 150.7 16.057 150.362 16.0753C150.024 16.0844 149.681 16.1027 149.333 16.1301C148.995 16.1484 148.675 16.1713 148.373 16.1987C148.072 16.217 147.807 16.2398 147.578 16.2673C147.349 16.2947 147.185 16.3175 147.084 16.3358C146.947 16.9575 146.819 17.5838 146.7 18.2147C146.581 18.8455 146.476 19.4353 146.385 19.9838C146.293 20.5233 146.225 20.9758 146.179 21.3415ZM147.647 12.537C147.857 12.5004 148.186 12.4593 148.634 12.4135C149.082 12.3678 149.548 12.3313 150.033 12.3038C150.517 12.2764 150.911 12.2581 151.212 12.249C151.194 12.057 151.171 11.6958 151.144 11.1655C151.125 10.6261 151.098 10.041 151.061 9.41011C151.025 8.77011 150.988 8.18496 150.952 7.65468C150.924 7.11525 150.897 6.74497 150.869 6.54382C150.723 6.54382 150.504 6.55297 150.211 6.57125C149.919 6.58954 149.635 6.60782 149.361 6.62611C149.087 6.64439 148.895 6.66268 148.785 6.68096C148.73 6.94611 148.652 7.31639 148.552 7.79182C148.46 8.25811 148.36 8.77925 148.25 9.35525C148.14 9.93125 148.031 10.4981 147.921 11.0558C147.82 11.6044 147.729 12.0981 147.647 12.537Z" fill="white"/>
<path d="M59.0555 43.1783C59.0555 42.7823 59.0581 42.286 59.0632 41.6895C59.0684 41.0929 59.0761 40.4423 59.0864 39.7377C59.0967 39.028 59.1095 38.3029 59.125 37.5623C59.1404 36.8217 59.1584 36.1069 59.179 35.4177C59.1995 34.7286 59.2252 34.1089 59.2561 33.5586C59.503 33.5329 59.7935 33.5123 60.1278 33.4969C60.4672 33.4815 60.799 33.4712 61.123 33.466C61.4521 33.4557 61.7298 33.4506 61.9561 33.4506C62.1824 33.4455 62.3084 33.4429 62.3341 33.4429C62.3444 33.4635 62.3804 33.5869 62.4421 33.8132C62.509 34.0395 62.5912 34.3326 62.689 34.6926C62.7918 35.0526 62.9024 35.4486 63.0207 35.8806C63.139 36.3126 63.2572 36.7523 63.3755 37.1997C63.499 37.6472 63.6147 38.0715 63.7227 38.4726C63.8307 38.8686 63.9181 39.2106 63.985 39.4986C64.057 39.7866 64.1032 39.9846 64.1238 40.0926L63.8384 40.1312C63.8898 39.9872 63.967 39.7506 64.0698 39.4215C64.1727 39.0923 64.2884 38.7117 64.417 38.2797C64.5507 37.8426 64.6844 37.3849 64.8181 36.9066C64.957 36.4232 65.0907 35.9552 65.2192 35.5026C65.3478 35.05 65.4584 34.6463 65.551 34.2915C65.6487 33.9315 65.7181 33.6589 65.7592 33.4737C65.9752 33.4737 66.2504 33.4789 66.5847 33.4892C66.9241 33.4995 67.2661 33.5149 67.6107 33.5355C67.9552 33.556 68.2407 33.5869 68.467 33.628C68.5698 34.0909 68.6418 34.69 68.683 35.4255C68.7241 36.1557 68.7447 36.9297 68.7447 37.7475C68.7447 38.4057 68.7344 39.0743 68.7138 39.7532C68.6984 40.4269 68.6752 41.0595 68.6444 41.6509C68.6135 42.2423 68.5801 42.7412 68.5441 43.1475C68.2921 43.1475 68.0195 43.1423 67.7264 43.132C67.4332 43.1217 67.153 43.1089 66.8855 43.0935C66.6232 43.0729 66.415 43.0575 66.2607 43.0472C66.2864 42.7129 66.3095 42.2835 66.3301 41.7589C66.3558 41.2343 66.3764 40.6917 66.3918 40.1312C66.4072 39.7866 66.4175 39.4395 66.4227 39.0897C66.433 38.74 66.4407 38.4212 66.4458 38.1332C66.4561 37.8452 66.4638 37.6215 66.469 37.462C66.4124 37.6626 66.3327 37.9249 66.2298 38.2489C66.1321 38.5677 66.019 38.92 65.8904 39.3057C65.767 39.6915 65.6358 40.0823 65.497 40.4783C65.3632 40.8692 65.2321 41.242 65.1035 41.5969C64.9801 41.9517 64.8695 42.2577 64.7718 42.5149C64.6792 42.772 64.6072 42.952 64.5558 43.0549C64.4838 43.06 64.3732 43.0652 64.2241 43.0703C64.0801 43.0703 63.9695 43.0703 63.8924 43.0703C63.7535 43.0703 63.6095 43.0652 63.4604 43.0549C63.3164 43.0395 63.157 43.0215 62.9821 43.0009C62.9667 42.934 62.9332 42.7952 62.8818 42.5843C62.8355 42.3735 62.7738 42.1137 62.6967 41.8052C62.6195 41.4966 62.5347 41.1597 62.4421 40.7946C62.3547 40.4243 62.2647 40.0489 62.1721 39.6683C62.0795 39.2826 61.987 38.9097 61.8944 38.5497C61.8018 38.1897 61.717 37.8632 61.6398 37.57C61.5678 37.2769 61.5061 37.0403 61.4547 36.8603C61.4598 37.3489 61.4624 37.8683 61.4624 38.4186C61.4675 38.9689 61.4701 39.5089 61.4701 40.0386C61.4701 40.5683 61.4701 41.0569 61.4701 41.5043C61.4752 41.9466 61.4778 42.3143 61.4778 42.6075C61.4778 42.9006 61.4778 43.078 61.4778 43.1397C61.2978 43.1449 61.069 43.1526 60.7912 43.1629C60.5135 43.168 60.223 43.1732 59.9195 43.1783C59.6161 43.1783 59.3281 43.1783 59.0555 43.1783Z" fill="#F8FFF3"/>
<path d="M77.6303 41.7975C77.4863 41.9723 77.3063 42.1446 77.0903 42.3143C76.8743 42.484 76.6146 42.6383 76.3112 42.7772C76.0129 42.9109 75.6709 43.0189 75.2852 43.1012C74.8995 43.1783 74.4675 43.2169 73.9892 43.2169C73.2126 43.2169 72.5235 43.0703 71.9218 42.7772C71.32 42.4789 70.8495 42.0392 70.51 41.458C70.1758 40.8717 70.0086 40.144 70.0086 39.2749C70.0086 38.4057 70.1835 37.6497 70.5332 37.0069C70.8829 36.3589 71.3715 35.8575 71.9989 35.5026C72.6263 35.1426 73.3592 34.9626 74.1975 34.9626C75.2569 34.9626 76.09 35.2583 76.6969 35.8497C77.3089 36.436 77.6278 37.2486 77.6535 38.2875C77.6586 38.4777 77.656 38.65 77.6458 38.8043C77.6355 38.9586 77.6149 39.1232 77.584 39.298C77.5069 39.2929 77.3423 39.2877 77.0903 39.2826C76.8383 39.2775 76.5529 39.2723 76.234 39.2672C75.9203 39.2569 75.622 39.2492 75.3392 39.244C75.0615 39.2389 74.8558 39.2363 74.722 39.2363C74.2746 39.2363 73.84 39.2569 73.4183 39.298C73.0018 39.3392 72.652 39.3829 72.3692 39.4292C72.3692 39.5217 72.3743 39.6143 72.3846 39.7069C72.4 39.7943 72.4206 39.8792 72.4463 39.9615C72.5132 40.1723 72.6289 40.3523 72.7935 40.5015C72.9632 40.6506 73.1637 40.7663 73.3952 40.8486C73.6318 40.9257 73.8812 40.9643 74.1435 40.9643C74.38 40.9643 74.596 40.936 74.7915 40.8795C74.992 40.8177 75.1746 40.738 75.3392 40.6403C75.5038 40.5426 75.6529 40.4372 75.7866 40.324C75.9255 40.2057 76.054 40.09 76.1723 39.9769C76.2032 40.0026 76.2829 40.0797 76.4115 40.2083C76.54 40.3317 76.684 40.486 76.8435 40.6712C77.0029 40.8512 77.1546 41.0415 77.2986 41.242C77.4426 41.4426 77.5532 41.6277 77.6303 41.7975ZM72.454 37.9866C72.6855 37.9506 72.9709 37.9172 73.3103 37.8863C73.6497 37.8555 74.0432 37.84 74.4906 37.84C74.7323 37.84 74.9457 37.8426 75.1309 37.8477C75.3212 37.8529 75.4549 37.858 75.532 37.8632C75.532 37.7552 75.5166 37.6369 75.4857 37.5083C75.4446 37.3335 75.3623 37.1663 75.2389 37.0069C75.1206 36.8475 74.9663 36.7189 74.776 36.6212C74.5909 36.5235 74.3672 36.4746 74.1049 36.4746C73.7757 36.4746 73.4877 36.5466 73.2409 36.6906C72.9992 36.8346 72.8115 37.0223 72.6778 37.2537C72.544 37.4852 72.4695 37.7295 72.454 37.9866Z" fill="#F8FFF3"/>
<path d="M79.1827 43.24C79.157 42.9057 79.1313 42.4789 79.1056 41.9595C79.085 41.44 79.0644 40.8769 79.0438 40.27C79.0284 39.658 79.013 39.0512 78.9976 38.4495C78.9873 37.8477 78.9796 37.2923 78.9744 36.7832C78.9693 36.2689 78.9667 35.8549 78.9667 35.5412C79.0901 35.5103 79.2547 35.4795 79.4604 35.4486C79.6661 35.4126 79.8847 35.3817 80.1161 35.356C80.3476 35.3252 80.5661 35.302 80.7719 35.2866C80.9827 35.266 81.1524 35.2557 81.281 35.2557C81.2861 35.338 81.2913 35.4435 81.2964 35.572C81.3016 35.6955 81.3041 35.824 81.3041 35.9577C81.3093 36.0915 81.3119 36.2123 81.3119 36.3203C81.3119 36.4283 81.3119 36.5106 81.3119 36.5672C81.3427 36.4695 81.4147 36.3435 81.5278 36.1892C81.641 36.0349 81.7953 35.8806 81.9907 35.7263C82.1913 35.572 82.433 35.4435 82.7159 35.3406C82.9987 35.2326 83.3253 35.1786 83.6956 35.1786C84.0504 35.1786 84.3513 35.2455 84.5981 35.3792C84.845 35.5129 85.0507 35.6877 85.2153 35.9037C85.3798 36.1197 85.5084 36.3537 85.601 36.6057C85.6473 36.7292 85.6833 36.8552 85.709 36.9837C85.7398 37.1123 85.763 37.2383 85.7784 37.3617C85.8916 36.9863 86.0793 36.6289 86.3416 36.2895C86.609 35.9449 86.9407 35.6646 87.3367 35.4486C87.7327 35.2275 88.1878 35.1169 88.7021 35.1169C89.3193 35.1169 89.8258 35.2275 90.2218 35.4486C90.623 35.6697 90.9341 35.9963 91.1553 36.4283C91.3764 36.8603 91.5307 37.39 91.6181 38.0175C91.7056 38.6449 91.7493 39.3623 91.7493 40.1697C91.7493 40.4886 91.7416 40.8229 91.7261 41.1726C91.7158 41.5223 91.7004 41.8746 91.6798 42.2295C91.6593 42.5843 91.6387 42.9289 91.6181 43.2632C91.433 43.2735 91.2401 43.2812 91.0396 43.2863C90.839 43.2966 90.6384 43.3017 90.4378 43.3017C90.2373 43.3017 90.0316 43.2966 89.8207 43.2863C89.615 43.2812 89.4067 43.2709 89.1958 43.2555C89.2987 42.4892 89.3836 41.7846 89.4504 41.1417C89.5173 40.4937 89.5507 39.9255 89.5507 39.4369C89.5507 38.722 89.4684 38.1769 89.3038 37.8015C89.1444 37.426 88.8693 37.2383 88.4784 37.2383C88.1236 37.2383 87.8356 37.3463 87.6144 37.5623C87.3933 37.7783 87.221 38.0766 87.0976 38.4572C86.9741 38.8377 86.8841 39.28 86.8276 39.784C86.7761 40.2829 86.7401 40.8177 86.7196 41.3886C86.7093 41.6766 86.699 41.9775 86.6887 42.2912C86.6784 42.6049 86.6733 42.9237 86.6733 43.2477C86.5704 43.2529 86.4238 43.258 86.2336 43.2632C86.0484 43.2735 85.853 43.2786 85.6473 43.2786C85.4056 43.2786 85.1716 43.2735 84.9453 43.2632C84.7241 43.258 84.5621 43.2477 84.4593 43.2323C84.4541 42.8826 84.4516 42.5535 84.4516 42.2449C84.4516 41.9363 84.4516 41.62 84.4516 41.296C84.4516 40.7097 84.4361 40.1697 84.4053 39.676C84.3796 39.1772 84.323 38.7452 84.2356 38.38C84.1481 38.0097 84.017 37.7217 83.8421 37.516C83.6724 37.3103 83.441 37.2075 83.1478 37.2075C82.9473 37.2075 82.7518 37.2512 82.5616 37.3386C82.3713 37.426 82.1964 37.5392 82.037 37.678C81.8827 37.8169 81.7516 37.9712 81.6436 38.1409C81.5407 38.3055 81.4687 38.47 81.4276 38.6346C81.4584 39.4523 81.4918 40.198 81.5278 40.8717C81.5638 41.5455 81.5973 42.0957 81.6281 42.5226C81.659 42.9443 81.6796 43.1989 81.6898 43.2863C81.6333 43.2915 81.515 43.2966 81.335 43.3017C81.155 43.3069 80.9981 43.3095 80.8644 43.3095C80.5404 43.3095 80.2164 43.3017 79.8924 43.2863C79.5684 43.2709 79.3318 43.2555 79.1827 43.24Z" fill="#F8FFF3"/>
<path d="M100.758 41.7975C100.614 41.9723 100.434 42.1446 100.218 42.3143C100.002 42.484 99.7424 42.6383 99.439 42.7772C99.1407 42.9109 98.7987 43.0189 98.413 43.1012C98.0273 43.1783 97.5953 43.2169 97.117 43.2169C96.3404 43.2169 95.6513 43.0703 95.0495 42.7772C94.4478 42.4789 93.9772 42.0392 93.6378 41.458C93.3035 40.8717 93.1364 40.144 93.1364 39.2749C93.1364 38.4057 93.3113 37.6497 93.661 37.0069C94.0107 36.3589 94.4993 35.8575 95.1267 35.5026C95.7541 35.1426 96.487 34.9626 97.3253 34.9626C98.3847 34.9626 99.2178 35.2583 99.8247 35.8497C100.437 36.436 100.756 37.2486 100.781 38.2875C100.786 38.4777 100.784 38.65 100.774 38.8043C100.763 38.9586 100.743 39.1232 100.712 39.298C100.635 39.2929 100.47 39.2877 100.218 39.2826C99.9661 39.2775 99.6807 39.2723 99.3618 39.2672C99.0481 39.2569 98.7498 39.2492 98.467 39.244C98.1893 39.2389 97.9835 39.2363 97.8498 39.2363C97.4024 39.2363 96.9678 39.2569 96.5461 39.298C96.1295 39.3392 95.7798 39.3829 95.497 39.4292C95.497 39.5217 95.5021 39.6143 95.5124 39.7069C95.5278 39.7943 95.5484 39.8792 95.5741 39.9615C95.641 40.1723 95.7567 40.3523 95.9213 40.5015C96.091 40.6506 96.2915 40.7663 96.523 40.8486C96.7595 40.9257 97.009 40.9643 97.2713 40.9643C97.5078 40.9643 97.7238 40.936 97.9193 40.8795C98.1198 40.8177 98.3024 40.738 98.467 40.6403C98.6315 40.5426 98.7807 40.4372 98.9144 40.324C99.0533 40.2057 99.1818 40.09 99.3001 39.9769C99.331 40.0026 99.4107 40.0797 99.5393 40.2083C99.6678 40.3317 99.8118 40.486 99.9713 40.6712C100.131 40.8512 100.282 41.0415 100.426 41.242C100.57 41.4426 100.681 41.6277 100.758 41.7975ZM95.5818 37.9866C95.8133 37.9506 96.0987 37.9172 96.4381 37.8863C96.7775 37.8555 97.171 37.84 97.6184 37.84C97.8601 37.84 98.0735 37.8426 98.2587 37.8477C98.449 37.8529 98.5827 37.858 98.6598 37.8632C98.6598 37.7552 98.6444 37.6369 98.6135 37.5083C98.5724 37.3335 98.4901 37.1663 98.3667 37.0069C98.2484 36.8475 98.0941 36.7189 97.9038 36.6212C97.7187 36.5235 97.495 36.4746 97.2327 36.4746C96.9035 36.4746 96.6155 36.5466 96.3687 36.6906C96.127 36.8346 95.9393 37.0223 95.8055 37.2537C95.6718 37.4852 95.5973 37.7295 95.5818 37.9866Z" fill="#F8FFF3"/>
<path d="M114.485 41.3732C114.228 41.6972 113.912 42.0032 113.537 42.2912C113.166 42.5792 112.745 42.8157 112.271 43.0009C111.798 43.1809 111.281 43.2709 110.721 43.2709C110.006 43.2709 109.373 43.1449 108.823 42.8929C108.273 42.6357 107.81 42.2732 107.435 41.8052C107.059 41.3372 106.774 40.7869 106.578 40.1543C106.388 39.5166 106.293 38.8197 106.293 38.0637C106.293 37.0815 106.463 36.2046 106.802 35.4332C107.141 34.6617 107.635 34.0549 108.283 33.6126C108.931 33.1703 109.723 32.9492 110.659 32.9492C111.42 32.9492 112.125 33.1112 112.773 33.4352C113.426 33.754 113.938 34.2349 114.308 34.8777C114.169 35.032 113.984 35.2043 113.753 35.3946C113.526 35.5797 113.295 35.7597 113.058 35.9346C112.827 36.1043 112.626 36.2432 112.457 36.3512C112.436 36.2946 112.385 36.1995 112.302 36.0657C112.225 35.932 112.117 35.7906 111.978 35.6415C111.839 35.4923 111.665 35.3663 111.454 35.2635C111.243 35.1555 110.996 35.1015 110.713 35.1015C110.446 35.1015 110.204 35.1683 109.988 35.302C109.772 35.4306 109.587 35.6183 109.433 35.8652C109.278 36.112 109.16 36.4052 109.078 36.7446C108.995 37.084 108.954 37.462 108.954 37.8786C108.954 38.2746 108.99 38.6475 109.062 38.9972C109.134 39.3469 109.24 39.658 109.379 39.9306C109.517 40.198 109.695 40.4063 109.911 40.5555C110.132 40.7046 110.387 40.7792 110.675 40.7792C110.957 40.7792 111.222 40.7277 111.469 40.6249C111.716 40.5169 111.947 40.3755 112.163 40.2006C112.379 40.0257 112.577 39.838 112.757 39.6375C112.943 39.766 113.148 39.9306 113.375 40.1312C113.601 40.3317 113.814 40.5426 114.015 40.7637C114.221 40.9849 114.377 41.188 114.485 41.3732Z" fill="#F8FFF3"/>
<path d="M119.42 43.348C118.058 43.348 117.032 42.988 116.342 42.268C115.653 41.5429 115.309 40.4912 115.309 39.1129C115.309 38.1923 115.486 37.4286 115.841 36.8217C116.196 36.2097 116.687 35.7495 117.314 35.4409C117.947 35.1323 118.677 34.978 119.505 34.978C120.349 34.978 121.048 35.1709 121.604 35.5566C122.164 35.9423 122.583 36.4746 122.861 37.1535C123.139 37.8323 123.278 38.6166 123.278 39.5063C123.278 40.2829 123.128 40.9592 122.83 41.5352C122.532 42.1112 122.095 42.5586 121.519 42.8775C120.948 43.1912 120.248 43.348 119.42 43.348ZM119.336 41.134C119.618 41.134 119.868 41.0852 120.084 40.9875C120.305 40.8897 120.49 40.7509 120.639 40.5709C120.794 40.3857 120.909 40.1697 120.986 39.9229C121.064 39.676 121.102 39.406 121.102 39.1129C121.102 38.6552 121.035 38.2515 120.902 37.9017C120.773 37.5469 120.58 37.2717 120.323 37.0763C120.071 36.8757 119.757 36.7755 119.382 36.7755C118.976 36.7755 118.644 36.8783 118.387 37.084C118.13 37.2897 117.939 37.5597 117.816 37.894C117.698 38.2232 117.638 38.5755 117.638 38.9509C117.638 39.5835 117.782 40.1055 118.07 40.5169C118.364 40.9283 118.785 41.134 119.336 41.134Z" fill="#F8FFF3"/>
<path d="M127.141 43.1629C127.054 43.168 126.887 43.1783 126.64 43.1937C126.398 43.2143 126.141 43.2246 125.869 43.2246C125.668 43.2246 125.465 43.2169 125.259 43.2015C125.059 43.1912 124.861 43.1757 124.665 43.1552C124.691 43.0215 124.719 42.7489 124.75 42.3375C124.786 41.9209 124.819 41.4323 124.85 40.8717C124.886 40.3112 124.92 39.7326 124.951 39.136C124.987 38.5343 125.012 37.9712 125.028 37.4466C125.048 36.922 125.059 36.5003 125.059 36.1815C125.161 36.1763 125.313 36.1686 125.514 36.1583C125.714 36.148 125.93 36.1403 126.162 36.1352C126.393 36.1249 126.614 36.1172 126.825 36.112C127.036 36.1017 127.203 36.0966 127.327 36.0966C127.352 36.256 127.373 36.5132 127.388 36.868C127.404 37.2229 127.411 37.6189 127.411 38.056C127.411 38.524 127.404 39.0203 127.388 39.5449C127.378 40.0695 127.36 40.5786 127.334 41.0723C127.314 41.5609 127.285 41.9929 127.249 42.3683C127.213 42.7386 127.177 43.0035 127.141 43.1629ZM126.277 35.1015C125.815 35.1015 125.426 34.9677 125.113 34.7003C124.799 34.4277 124.642 34.0703 124.642 33.628C124.642 33.3246 124.717 33.0649 124.866 32.8489C125.015 32.6329 125.208 32.4683 125.444 32.3552C125.686 32.2369 125.941 32.1777 126.208 32.1777C126.635 32.1777 126.987 32.3166 127.265 32.5943C127.548 32.872 127.689 33.2295 127.689 33.6666C127.689 34.0729 127.555 34.4149 127.288 34.6926C127.021 34.9652 126.684 35.1015 126.277 35.1015Z" fill="#F8FFF3"/>
<path d="M131.853 43.2786C131.699 43.2837 131.509 43.2837 131.283 43.2786C131.056 43.2786 130.825 43.276 130.588 43.2709C130.398 43.2657 130.179 43.258 129.933 43.2477C129.686 43.2375 129.513 43.2272 129.416 43.2169C129.462 42.7849 129.501 42.2963 129.531 41.7512C129.567 41.206 129.596 40.6017 129.616 39.9383C129.637 39.2749 129.652 38.5497 129.663 37.7629C129.673 36.976 129.678 36.1249 129.678 35.2095C129.873 35.1837 130.105 35.1632 130.372 35.1477C130.64 35.1323 130.91 35.1246 131.182 35.1246C131.373 35.1246 131.555 35.1297 131.73 35.14C131.91 35.1452 132.069 35.1606 132.208 35.1863C132.208 35.2326 132.208 35.3277 132.208 35.4717C132.213 35.6106 132.213 35.7649 132.208 35.9346C132.208 36.0992 132.206 36.2483 132.201 36.382C132.334 36.1866 132.553 35.9835 132.856 35.7726C133.16 35.5566 133.512 35.374 133.913 35.2249C134.314 35.0757 134.728 35.0012 135.155 35.0012C135.942 35.0012 136.544 35.1606 136.96 35.4795C137.377 35.7932 137.662 36.2663 137.817 36.8989C137.971 37.5263 138.048 38.3132 138.048 39.2595C138.048 39.5886 138.038 39.9743 138.017 40.4166C138.002 40.8537 137.976 41.314 137.94 41.7975C137.904 42.2809 137.858 42.7489 137.801 43.2015C137.698 43.2117 137.534 43.2195 137.307 43.2246C137.086 43.2349 136.852 43.24 136.605 43.24C136.343 43.24 136.094 43.2349 135.857 43.2246C135.621 43.2195 135.446 43.2117 135.333 43.2015C135.389 42.9135 135.451 42.5535 135.518 42.1215C135.585 41.6895 135.641 41.2292 135.687 40.7406C135.734 40.2469 135.757 39.7763 135.757 39.3289C135.757 38.8969 135.721 38.5215 135.649 38.2026C135.582 37.8837 135.451 37.6369 135.255 37.462C135.065 37.282 134.782 37.192 134.407 37.192C134.098 37.192 133.803 37.246 133.52 37.354C133.237 37.462 132.98 37.5957 132.748 37.7552C132.517 37.9095 132.319 38.0612 132.154 38.2103C132.149 39.0229 132.129 39.7583 132.093 40.4166C132.057 41.0697 132.018 41.638 131.977 42.1215C131.936 42.5997 131.895 42.9855 131.853 43.2786Z" fill="#F8FFF3"/>
<path d="M42.4515 9.23678L42.4507 9.23766C42.4436 9.24356 42.4371 9.24327 42.4312 9.23678C41.8141 8.56949 41.1878 7.94764 40.5524 7.37121C38.5656 5.5676 36.323 4.2233 33.8645 3.20113C31.1741 2.0825 28.3294 1.51906 25.3305 1.5108C16.4514 1.48514 8.36167 6.57118 4.54204 14.6051C1.97557 20.0027 1.60476 26.2561 3.58891 31.9235C5.41465 37.1388 9.00948 41.5416 13.7681 44.2585C18.209 46.7949 22.9452 47.769 27.9766 47.1808C30.8174 46.8492 33.5066 46.0017 36.0442 44.6382C40.0054 42.5107 43.0893 39.479 45.2959 35.5432C45.3012 35.5337 45.3083 35.5314 45.3172 35.5361L45.318 35.537C45.3298 35.5429 45.3328 35.5517 45.3269 35.5635C45.259 35.7022 45.1885 35.8387 45.1154 35.9733C44.0121 38.0052 42.5961 39.8958 40.8674 41.6452C40.3801 42.139 39.8727 42.6001 39.3452 43.0284C35.0465 46.5212 30.1549 48.3637 24.6703 48.5561C21.2463 48.6764 17.6576 48.0056 14.4407 46.5843C9.83105 44.5465 6.20789 41.4095 3.57121 37.1733C0.396743 32.0704 -0.691796 25.8755 0.427718 20.0018C0.547487 19.3747 0.682006 18.7979 0.831274 18.2717C2.38473 12.7983 5.41996 8.41315 9.93696 5.11626C12.0362 3.58404 14.3793 2.42057 16.9664 1.62585C22.6808 -0.13086 28.8439 0.316947 34.2494 2.87369C37.4272 4.37699 40.1618 6.48976 42.4533 9.212C42.461 9.22085 42.4604 9.22911 42.4515 9.23678Z" fill="#84DD18"/>
<path d="M28.2289 9.55182C28.7183 8.3261 29.3777 7.09154 30.2246 6.13132C30.4936 5.82629 30.791 5.56522 31.1167 5.3481C33.3008 3.89318 34.6761 6.93047 35.223 8.4969C36.0239 10.7917 36.3505 13.1652 36.347 15.5706C36.347 15.5954 36.3552 15.617 36.3718 15.6352C38.3904 17.8619 40.256 20.1487 41.8631 22.4692C42.5151 23.4102 43.0871 24.3554 43.5791 25.3047C46.2412 30.4438 44.1252 36.3768 40.1135 40.0823C38.7264 41.3631 37.1615 42.3287 35.4186 42.9788C35.1738 43.0703 35.1581 43.0408 35.3717 42.8903C35.7292 42.6384 36.0859 42.3791 36.4417 42.1124C41.4171 38.384 45.4403 32.32 42.4676 25.9233C42.2156 25.3823 41.9301 24.8436 41.6109 24.3073C40.287 22.083 38.7674 19.9446 37.0523 17.892C36.4824 17.2105 35.793 16.5822 35.1956 15.8875C35.1614 15.847 35.1431 15.7953 35.1443 15.7423C35.1903 14.1747 35.0844 12.5938 34.8266 10.9997C34.6442 9.87041 34.3584 8.83261 33.969 7.88626C33.6318 7.06499 32.9247 6.0145 31.8539 6.44284C31.0972 6.74551 30.4335 7.56235 30.0892 8.24822C29.6476 9.1279 29.2679 10.1837 28.9387 11.1483C28.9251 11.1867 28.8986 11.2014 28.8591 11.1926C26.3085 10.6262 23.696 10.5979 21.1738 11.1829C20.1289 11.4253 19.1563 11.7233 18.256 12.0767C17.5167 12.367 16.8774 12.7118 16.3382 13.1113C16.3087 13.1331 16.2792 13.1334 16.2497 13.1121C15.1514 12.3387 13.9611 11.6643 12.7265 11.1997C11.7433 10.8297 10.4875 10.5634 9.53438 10.9474C8.383 11.4121 8.18654 12.7015 8.27326 13.8414C8.39716 15.4686 8.86149 16.9754 9.66624 18.3619C10.5167 19.8275 11.6654 21.0921 12.9292 22.3302C12.9558 22.3562 12.9646 22.3868 12.9558 22.4222C12.2371 25.279 11.7982 28.4234 11.7849 31.3828C11.7752 33.828 12.1106 36.2724 13.2168 38.4185C15.9399 43.7001 22.1942 44.6293 27.5094 44.5046C27.9443 44.4945 27.949 44.5349 27.5236 44.6258C23.9571 45.3887 20.0286 45.2701 16.5922 43.9497C11.2858 41.9098 10.2025 36.437 10.3326 31.3483C10.3851 29.2921 10.561 27.2897 10.8601 25.341C10.9946 24.4636 11.1875 23.6034 11.4389 22.7603C11.4477 22.7308 11.4404 22.7063 11.4168 22.6869C8.76178 20.4602 6.467 17.2273 6.47673 13.6422C6.48116 11.6961 7.42102 10.0377 9.39897 9.51288C10.5866 9.19782 11.8256 9.39871 12.9779 9.79784C13.9956 10.1507 14.9727 10.6159 15.909 11.1935C15.9343 11.2092 15.9629 11.2189 15.9925 11.2218C16.0221 11.2247 16.052 11.2208 16.0798 11.2103C17.7624 10.5867 19.4835 10.0864 21.2428 9.70934C23.4942 9.22614 25.8041 9.22702 28.1307 9.60668C28.1511 9.60989 28.1719 9.60621 28.1898 9.59624C28.2076 9.58627 28.2214 9.57061 28.2289 9.55182Z" fill="white"/>
<path d="M33.2166 9.46509C31.9891 8.98454 31.2333 11.3714 31.0227 12.1802C31.0214 12.1855 31.0188 12.1903 31.0153 12.1944C31.0118 12.1985 31.0074 12.2017 31.0025 12.2039C30.9975 12.206 30.9921 12.207 30.9868 12.2067C30.9814 12.2065 30.9761 12.205 30.9714 12.2024L29.989 11.6917C29.9807 11.6874 29.974 11.6804 29.9702 11.6717C29.9663 11.663 29.9655 11.6533 29.9678 11.6439C30.1725 10.8634 30.413 10.1418 30.6891 9.47925C30.9165 8.93233 31.2776 8.29956 31.7971 7.99866C32.229 7.74821 32.7962 7.88273 33.0909 8.2677C33.4025 8.67568 33.5414 9.20137 33.6733 9.69873C33.6963 9.78664 33.6759 9.79815 33.6122 9.73325C33.4948 9.61171 33.3629 9.52232 33.2166 9.46509Z" fill="white"/>
<path d="M46.4667 19.069C46.4738 19.0661 46.4812 19.0646 46.4888 19.0646C46.4918 19.064 46.4935 19.0619 46.4941 19.0584C46.6163 17.6755 46.4337 16.2344 45.9463 14.7352C45.1805 12.3811 43.9849 10.3356 42.3595 8.59869C42.1353 8.35856 41.8993 8.13908 41.6515 7.94026C41.5913 7.89247 41.5995 7.86975 41.6762 7.87211C44.3312 7.96238 46.2525 9.60758 47.2101 12.0165C47.8957 13.7393 48.111 15.5509 47.8561 17.4513C47.5452 19.7676 46.7596 21.8579 45.4994 23.7223C45.4103 23.8539 45.3835 23.8424 45.4189 23.6878C46.041 20.9762 45.2835 18.0973 43.3604 16.0468C42.2931 14.9096 41.2718 13.8732 40.739 12.3794C40.2464 10.997 40.2959 9.63737 40.8877 8.30045C40.929 8.20723 40.9851 8.1972 41.0559 8.27036C43.8533 11.1607 46.0162 15.0193 46.4552 19.0628C46.4558 19.0699 46.4596 19.072 46.4667 19.069Z" fill="#84DD18"/>
<path d="M12.8239 12.5342C13.8033 13.0458 14.7671 13.675 15.7152 14.4219C15.7187 14.4247 15.7216 14.4282 15.7238 14.4322C15.7259 14.4361 15.7272 14.4405 15.7276 14.4451C15.7281 14.4496 15.7276 14.4542 15.7262 14.4586C15.7248 14.463 15.7226 14.4671 15.7196 14.4706C15.329 14.929 15.0039 15.4125 14.7443 15.9211C14.7237 15.9612 14.6948 15.9686 14.6576 15.9432C13.9576 15.4591 13.2682 15.0051 12.4947 14.6494C12.2121 14.5202 11.9256 14.4346 11.6354 14.3927C10.4504 14.2228 10.415 15.9494 10.5203 16.6751C10.5215 16.6834 10.5182 16.6887 10.5105 16.691C10.5029 16.6934 10.4952 16.694 10.4875 16.6928C10.484 16.6922 10.4816 16.6905 10.4804 16.6875C10.0073 15.6078 9.84325 14.5166 9.98839 13.4139C10.0636 12.8404 10.3495 12.121 10.9858 12.0289C11.5708 11.9448 12.3026 12.2617 12.8239 12.5342Z" fill="white"/>
<path d="M31.9103 21.1071C32.8776 22.1966 33.9467 23.2311 34.8627 24.3887C37.1433 27.272 37.2628 31.4562 34.3874 34.028C34.257 34.1448 34.1284 34.2569 34.0016 34.3643C33.9768 34.3856 33.9668 34.4124 33.9715 34.4449C34.1331 35.5275 34.1918 36.657 34.1476 37.8335C34.098 39.1769 33.8626 41.0752 32.8803 42.0469C31.6838 43.2302 29.7828 42.2779 28.8341 41.2894C28.5538 40.9973 28.2996 40.6952 28.0712 40.3831C27.1615 39.145 26.3818 37.6246 25.7685 36.1095C25.7561 36.0794 25.7346 36.0594 25.7039 36.0493C25.3593 35.942 25.1071 35.8567 24.9472 35.7936C22.3745 34.7803 20.6568 32.5058 20.4842 29.734C20.4287 28.8473 20.4886 27.8877 20.6639 26.8552C20.8586 25.7047 21.0648 24.5621 21.2825 23.4276C21.3002 23.3367 21.2798 23.3273 21.2214 23.3993C20.8603 23.8465 20.4633 24.2282 20.0302 24.5444C19.4576 24.9622 18.6054 25.2693 17.9868 24.8347C17.2735 24.3329 17.2513 23.2701 17.3619 22.5045C17.3633 22.4961 17.367 22.4883 17.3727 22.4819C17.3784 22.4755 17.3858 22.471 17.394 22.4687C17.4022 22.4665 17.4109 22.4667 17.4191 22.4692C17.4272 22.4718 17.4344 22.4767 17.4398 22.4833C17.8761 23.0276 18.6655 23.0568 19.0965 22.4975C19.3479 22.17 19.3532 21.678 19.0921 21.3479C18.8703 21.0676 18.5773 20.9346 18.2133 20.9487C18.2065 20.9491 18.1997 20.9475 18.1938 20.9439C18.188 20.9404 18.1833 20.9351 18.1805 20.9289C18.1777 20.9226 18.1769 20.9156 18.1782 20.9089C18.1795 20.9022 18.1828 20.896 18.1876 20.8912C19.447 19.6009 20.747 21.2133 21.3895 22.2125C21.4238 22.265 21.4438 22.26 21.4497 22.1975C21.5604 21.0293 21.5842 19.9027 21.3409 18.7663C21.3179 18.6566 21.3323 18.6513 21.3842 18.7504C21.8073 19.551 22.0409 20.3953 22.0851 21.2833C22.1229 22.0384 22.0849 22.7815 21.971 23.5125C21.8223 24.4701 21.6624 25.435 21.4913 26.4074C21.2654 27.6912 21.2397 28.903 21.4143 30.0429C21.7188 32.0297 22.9489 33.9599 24.8322 34.6705C25.3136 34.8522 25.8458 34.9643 26.4287 35.0068C27.1385 35.0581 28.6146 35.1874 29.0509 34.5519C29.266 34.2386 29.081 33.7811 28.8518 33.528C28.673 33.3303 28.4609 33.1522 28.2155 32.9935C27.5155 32.5412 26.8243 32.0978 26.2499 31.4854C25.4747 30.6571 24.8667 29.6252 24.7746 28.5101C24.5198 25.4188 27.9518 24.2099 30.4094 24.3666C31.251 24.4205 32.1333 24.6666 32.6997 25.3002C33.5741 26.2799 33.7732 27.8048 33.6113 29.0906C33.429 30.5367 32.7555 31.5474 31.8289 32.5917C31.626 32.82 31.4224 33.0566 31.2183 33.3014C31.1587 33.3728 31.1159 33.4525 31.0899 33.5404C30.9306 34.0696 31.4599 34.2218 31.8572 34.1794C33.0484 34.0501 34.1016 33.4714 34.7733 32.428C36.1601 30.273 35.9831 27.5348 34.6795 25.4277C34.3508 24.8955 33.9331 24.3388 33.4263 23.7577C32.7242 22.9535 32.0549 22.1836 31.4183 21.4479C30.6112 20.5145 29.9746 19.5091 29.5085 18.4318C29.3244 18.007 29.1907 17.5716 29.1111 17.1079C29.0863 16.9592 29.1046 16.9536 29.166 17.091C29.5819 18.0126 30.1563 18.9324 30.889 19.8504C30.8931 19.8553 30.8982 19.8591 30.9041 19.8615C30.9099 19.8639 30.9162 19.8648 30.9224 19.8641C30.9286 19.8634 30.9345 19.8611 30.9395 19.8575C30.9445 19.8538 30.9485 19.849 30.951 19.8434C31.32 19.0168 31.9979 17.9424 32.9962 17.9017C33.1065 17.897 33.1201 17.9306 33.0369 18.0026C32.3909 18.5628 32.8997 19.5363 33.7157 19.3619C34.0019 19.3006 34.2045 19.1253 34.3237 18.8363C34.327 18.8284 34.3323 18.8216 34.3391 18.8166C34.346 18.8115 34.354 18.8084 34.3625 18.8076C34.3709 18.8068 34.3794 18.8083 34.3871 18.8119C34.3948 18.8156 34.4013 18.8212 34.406 18.8283C34.9556 19.6478 35.3538 21.1417 33.9255 21.3921C33.2281 21.5142 32.5679 21.4048 31.9448 21.0638C31.8499 21.0119 31.8383 21.0263 31.9103 21.1071ZM31.8599 26.0144C31.9071 26.0262 31.9395 26.033 31.9572 26.0348C32.0245 26.0401 32.0325 26.0209 31.9811 25.9772C30.597 24.8037 28.4217 25.1675 26.9588 26.0038C26.5163 26.2569 25.988 26.7321 25.9251 27.2738C25.918 27.3357 25.9381 27.346 25.9853 27.3047C26.4567 26.8888 27.0087 26.5696 27.6411 26.3472C28.9598 25.8834 30.5005 25.6772 31.8599 26.0144ZM31.505 39.6513C31.3032 38.7335 31.0466 37.9034 30.5174 37.1308C30.3994 36.9585 30.2704 36.8367 30.1306 36.7653C29.7324 36.5617 29.3152 36.4432 28.8792 36.4095C27.7385 36.3219 27.3863 37.2635 27.7137 38.2061C28.0848 39.2745 28.6863 40.205 29.5182 40.9973C30.5138 41.9443 32.1103 42.4761 32.9113 40.9752C33.047 40.7209 33.1549 40.4298 33.2352 40.1017C33.444 39.2504 34.2405 35.3175 32.2077 35.9493C31.8319 36.0656 31.472 36.3243 31.128 36.7255C31.1056 36.7514 31.0994 36.7806 31.1094 36.8131C31.3619 37.6509 31.5056 38.5955 31.5404 39.6468C31.5451 39.7784 31.5333 39.7799 31.505 39.6513Z" fill="white"/>
<path d="M27.0739 43.116C28.5082 43.9379 29.9782 44.2827 31.4838 44.1506C33.1287 44.006 34.373 43.2623 35.2167 41.9195C35.2905 41.8021 35.3241 41.8127 35.3176 41.9514C35.3147 42.0109 35.3055 42.0708 35.2902 42.131C34.3025 45.9462 28.9289 45.9303 26.9137 43.1461C26.8524 43.0611 26.871 43.0355 26.9695 43.0691C27.0049 43.0809 27.0397 43.0965 27.0739 43.116Z" fill="white"/>
</svg>
