<svg width="42" height="42" viewBox="0 0 42 42" fill="none" xmlns="http://www.w3.org/2000/svg">
<rect x="1.34366" y="1.06982" width="40.0477" height="40.0477" rx="8.29594" fill="#1B1F17"/>
<rect x="1.34366" y="1.06982" width="40.0477" height="40.0477" rx="8.29594" stroke="#30342C"/>
<path d="M28.0267 14.9531C28.4777 14.9531 28.818 15.3488 28.636 16.0847L26.4282 26.4908C26.2739 27.2307 25.8267 27.4088 25.2095 27.0646L19.9432 23.1751C19.9227 23.1605 19.9061 23.1412 19.8946 23.1188C19.8831 23.0964 19.8771 23.0717 19.8771 23.0465C19.8771 23.0214 19.8831 22.9966 19.8946 22.9743C19.9061 22.9519 19.9227 22.9326 19.9432 22.9179L24.5586 18.892C24.8356 18.6467 24.4992 18.528 24.1352 18.7496L17.9688 22.0989C17.9456 22.114 17.9193 22.1236 17.8919 22.1271C17.8645 22.1305 17.8366 22.1276 17.8105 22.1187L14.57 21.0939C13.8498 20.8842 13.8498 20.3896 14.7322 20.0375L27.6983 15.0362C27.8011 14.9869 27.9128 14.9586 28.0267 14.9531Z" stroke="white" stroke-width="1.09949" stroke-linecap="round" stroke-linejoin="round"/>
</svg>
