<svg width="57" height="57" viewBox="0 0 57 57" fill="none" xmlns="http://www.w3.org/2000/svg">
<rect x="1.36743" y="1.58679" width="54.5" height="54.5" rx="11.25" fill="white"/>
<rect x="1.36743" y="1.58679" width="54.5" height="54.5" rx="11.25" stroke="#CACCC7" stroke-width="1.5"/>
<g clip-path="url(#clip0_0_49)">
<path fill-rule="evenodd" clip-rule="evenodd" d="M33.2948 18.3126C34.8455 18.3126 36.3326 18.9286 37.4291 20.0251C38.5256 21.1216 39.1416 22.6087 39.1416 24.1594V33.5142C39.1416 35.0649 38.5256 36.552 37.4291 37.6485C36.3326 38.745 34.8455 39.361 33.2948 39.361H23.94C22.3894 39.361 20.9022 38.745 19.8057 37.6485C18.7093 36.552 18.0933 35.0649 18.0933 33.5142V24.1594C18.0933 22.6087 18.7093 21.1216 19.8057 20.0251C20.9022 18.9286 22.3894 18.3126 23.94 18.3126H33.2948ZM33.2948 20.6513H23.94C23.0096 20.6513 22.1173 21.0209 21.4595 21.6788C20.8016 22.3367 20.432 23.229 20.432 24.1594V33.5142C20.432 34.4446 20.8016 35.3369 21.4595 35.9948C22.1173 36.6527 23.0096 37.0223 23.94 37.0223H33.2948C34.2252 37.0223 35.1175 36.6527 35.7754 35.9948C36.4333 35.3369 36.8029 34.4446 36.8029 33.5142V24.1594C36.8029 23.229 36.4333 22.3367 35.7754 21.6788C35.1175 21.0209 34.2252 20.6513 33.2948 20.6513ZM28.6174 24.1594C29.858 24.1594 31.0477 24.6522 31.9249 25.5294C32.802 26.4065 33.2948 27.5963 33.2948 28.8368C33.2948 30.0773 32.802 31.267 31.9249 32.1442C31.0477 33.0214 29.858 33.5142 28.6174 33.5142C27.3769 33.5142 26.1872 33.0214 25.31 32.1442C24.4328 31.267 23.94 30.0773 23.94 28.8368C23.94 27.5963 24.4328 26.4065 25.31 25.5294C26.1872 24.6522 27.3769 24.1594 28.6174 24.1594ZM28.6174 26.4981C27.9972 26.4981 27.4023 26.7445 26.9637 27.1831C26.5251 27.6217 26.2787 28.2165 26.2787 28.8368C26.2787 29.4571 26.5251 30.0519 26.9637 30.4905C27.4023 30.9291 27.9972 31.1755 28.6174 31.1755C29.2377 31.1755 29.8326 30.9291 30.2711 30.4905C30.7097 30.0519 30.9561 29.4571 30.9561 28.8368C30.9561 28.2165 30.7097 27.6217 30.2711 27.1831C29.8326 26.7445 29.2377 26.4981 28.6174 26.4981ZM33.8795 22.4054C34.1896 22.4054 34.4871 22.5286 34.7064 22.7479C34.9257 22.9671 35.0489 23.2646 35.0489 23.5747C35.0489 23.8848 34.9257 24.1823 34.7064 24.4016C34.4871 24.6209 34.1896 24.7441 33.8795 24.7441C33.5694 24.7441 33.272 24.6209 33.0527 24.4016C32.8334 24.1823 32.7102 23.8848 32.7102 23.5747C32.7102 23.2646 32.8334 22.9671 33.0527 22.7479C33.272 22.5286 33.5694 22.4054 33.8795 22.4054Z" fill="black"/>
</g>
<defs>
<clipPath id="clip0_0_49">
<rect width="24" height="24" fill="white" transform="translate(16.6174 16.8368)"/>
</clipPath>
</defs>
</svg>
