<svg width="157" height="49" viewBox="0 0 157 49" fill="none" xmlns="http://www.w3.org/2000/svg">
<path d="M73.2181 23.0957C73.0078 23.0043 72.729 22.8397 72.3815 22.602C72.0432 22.3643 71.6912 22.0991 71.3255 21.8066C70.969 21.5231 70.649 21.2534 70.3655 20.9974C70.0821 20.7323 69.8855 20.5266 69.7758 20.3803C69.6387 20.4809 69.4193 20.6043 69.1175 20.7506C68.825 20.8877 68.4684 21.0066 68.0478 21.1071C67.6272 21.2077 67.1564 21.258 66.6352 21.258C65.465 21.258 64.409 21.034 63.4672 20.586C62.5255 20.1289 61.721 19.5026 61.0535 18.7071C60.3861 17.9117 59.8741 16.9883 59.5175 15.9369C59.161 14.8763 58.9827 13.738 58.9827 12.522C58.9827 11.1871 59.1655 9.95743 59.5312 8.83286C59.9061 7.70828 60.441 6.73 61.1358 5.898C61.8307 5.05685 62.6672 4.40771 63.6455 3.95057C64.633 3.48428 65.7484 3.25114 66.9918 3.25114C68.8021 3.25114 70.2832 3.626 71.4352 4.37571C72.5872 5.11628 73.4375 6.14028 73.9861 7.44771C74.5347 8.746 74.809 10.2409 74.809 11.9323C74.809 12.8557 74.7495 13.7426 74.6307 14.5929C74.5118 15.434 74.2878 16.2066 73.9587 16.9106C73.6387 17.6054 73.1815 18.1997 72.5872 18.6934C72.9347 19.114 73.3781 19.5026 73.9175 19.8591C74.457 20.2066 74.9781 20.49 75.481 20.7094C75.2158 21.1209 74.8684 21.5414 74.4387 21.9711C74.0181 22.41 73.6112 22.7849 73.2181 23.0957ZM67.8421 17.1437C67.7141 17.0157 67.5541 16.8146 67.3621 16.5403C67.1701 16.2569 66.9827 15.9551 66.7998 15.6351C66.617 15.3151 66.4798 15.0363 66.3884 14.7986C66.553 14.6614 66.7815 14.4923 67.0741 14.2911C67.3758 14.09 67.6867 13.8843 68.0067 13.674C68.3358 13.4637 68.6284 13.2854 68.8844 13.1391C69.049 13.5414 69.2638 14.0123 69.529 14.5517C69.7941 15.082 70.0821 15.53 70.393 15.8957C70.585 15.6123 70.7404 15.178 70.8592 14.5929C70.9781 14.0077 71.0375 13.2534 71.0375 12.33C71.0375 11.2054 70.9004 10.2226 70.6261 9.38143C70.361 8.54028 69.945 7.88657 69.3781 7.42028C68.8112 6.954 68.0707 6.72086 67.1564 6.72086C66.2878 6.72086 65.5518 6.94028 64.9484 7.37914C64.3541 7.818 63.9015 8.426 63.5907 9.20314C63.289 9.97114 63.1381 10.8534 63.1381 11.85C63.1381 12.746 63.257 13.6283 63.4947 14.4969C63.7324 15.3563 64.1072 16.0694 64.6192 16.6363C65.1404 17.194 65.8215 17.4729 66.6627 17.4729C67.0284 17.4729 67.3027 17.4317 67.4855 17.3494C67.6684 17.258 67.7872 17.1894 67.8421 17.1437Z" fill="#0B0F07"/>
<path d="M84.0153 21.4911C82.3879 21.4911 81.1079 21.1254 80.1753 20.394C79.2519 19.6626 78.5616 18.6203 78.1045 17.2671C77.6839 16.0511 77.4187 14.5746 77.309 12.8374C77.2085 11.0911 77.1582 9.12086 77.1582 6.92657C77.1582 6.58828 77.1627 6.23628 77.1719 5.87057C77.181 5.50486 77.1902 5.13457 77.1993 4.75971C77.2085 4.37571 77.2176 4.00543 77.2267 3.64885C77.245 3.29228 77.2587 2.96314 77.2679 2.66143C77.6427 2.61571 78.0222 2.58371 78.4062 2.56543C78.7902 2.538 79.1559 2.52428 79.5033 2.52428C79.9696 2.52428 80.4313 2.538 80.8885 2.56543C81.3456 2.59285 81.7525 2.62486 82.109 2.66143C82.0542 3.34714 82.0039 4.09228 81.9582 4.89686C81.9125 5.70143 81.8759 6.52428 81.8485 7.36543C81.8302 8.19743 81.821 9.00657 81.821 9.79286C81.821 10.7071 81.8485 11.5209 81.9033 12.234C81.9582 12.938 82.045 13.5414 82.1639 14.0443C82.3376 14.794 82.5982 15.3471 82.9456 15.7037C83.293 16.0603 83.741 16.2386 84.2896 16.2386C84.893 16.2386 85.3639 16.0329 85.7022 15.6214C86.0496 15.21 86.2919 14.6294 86.429 13.8797C86.5662 13.13 86.6347 12.2569 86.6347 11.2603C86.6347 10.8946 86.6256 10.4237 86.6073 9.84771C86.5982 9.26257 86.5845 8.63171 86.5662 7.95514C86.5479 7.26943 86.525 6.59285 86.4976 5.92543C86.4702 5.258 86.4382 4.65457 86.4016 4.11514C86.365 3.56657 86.3285 3.14143 86.2919 2.83971C86.6576 2.83971 87.0782 2.858 87.5536 2.89457C88.0382 2.922 88.5136 2.954 88.9799 2.99057C89.4553 3.02714 89.8667 3.06828 90.2142 3.114C90.5616 3.15971 90.7856 3.19628 90.8862 3.22371C90.9685 3.70828 91.0325 4.23857 91.0782 4.81457C91.1239 5.38143 91.1605 5.97114 91.1879 6.58371C91.2153 7.19628 91.229 7.80886 91.229 8.42143C91.229 10.2409 91.133 11.9414 90.941 13.5231C90.7582 15.1049 90.4107 16.4946 89.8987 17.6923C89.3867 18.8809 88.6553 19.8134 87.7045 20.49C86.7536 21.1574 85.5239 21.4911 84.0153 21.4911Z" fill="#0B0F07"/>
<path d="M101.609 21.7654C99.6984 21.7654 98.135 21.354 96.919 20.5311C95.7121 19.7083 94.8207 18.5883 94.2447 17.1711C93.6778 15.754 93.3944 14.1586 93.3944 12.3849C93.3944 10.5563 93.7144 8.93343 94.3544 7.51628C95.0035 6.09914 95.9361 4.98828 97.1521 4.18371C98.3772 3.37 99.863 2.96314 101.609 2.96314C103.063 2.96314 104.311 3.20543 105.353 3.69C106.396 4.17457 107.246 4.84657 107.904 5.706C108.572 6.56543 109.061 7.562 109.372 8.69571C109.682 9.82943 109.838 11.0546 109.838 12.3711C109.838 13.6054 109.678 14.7849 109.358 15.9094C109.047 17.034 108.558 18.0351 107.89 18.9129C107.232 19.7906 106.382 20.4854 105.34 20.9974C104.306 21.5094 103.063 21.7654 101.609 21.7654ZM101.65 17.3769C102.583 17.3769 103.36 17.1209 103.982 16.6089C104.613 16.0969 105.084 15.4294 105.394 14.6066C105.705 13.7746 105.861 12.8877 105.861 11.946C105.861 11.2511 105.792 10.5837 105.655 9.94371C105.518 9.29457 105.298 8.71857 104.997 8.21571C104.695 7.71285 104.288 7.31514 103.776 7.02257C103.264 6.73 102.633 6.58371 101.884 6.58371C101.033 6.58371 100.302 6.83971 99.6892 7.35171C99.0767 7.86371 98.6012 8.554 98.263 9.42257C97.9338 10.282 97.7692 11.2466 97.7692 12.3163C97.7692 13.2671 97.8927 14.1266 98.1395 14.8946C98.3955 15.6534 98.807 16.2569 99.3738 16.7049C99.9498 17.1529 100.709 17.3769 101.65 17.3769Z" fill="#0B0F07"/>
<path d="M112.601 21.5049C112.601 20.9837 112.588 20.2934 112.56 19.434C112.542 18.5654 112.515 17.5917 112.478 16.5129C112.441 15.434 112.396 14.3003 112.341 13.1117C112.286 11.9231 112.231 10.7391 112.176 9.55971C112.121 8.37114 112.067 7.242 112.012 6.17228C111.966 5.09343 111.916 4.13343 111.861 3.29228C112.181 3.22828 112.547 3.18714 112.958 3.16885C113.369 3.14143 113.758 3.12771 114.124 3.12771C114.553 3.12771 114.956 3.146 115.331 3.18257C115.715 3.21 116.012 3.242 116.222 3.27857C116.231 3.51628 116.245 3.90028 116.263 4.43057C116.281 4.95171 116.304 5.55514 116.332 6.24085C116.359 6.92657 116.387 7.626 116.414 8.33914C116.451 9.05228 116.483 9.71057 116.51 10.314C116.867 10.0031 117.255 9.60085 117.676 9.10714C118.105 8.60428 118.549 8.03286 119.006 7.39286C119.472 6.75286 119.929 6.06714 120.377 5.33571C120.825 4.60428 121.251 3.84543 121.653 3.05914C122.366 3.60771 123.07 4.09228 123.765 4.51286C124.469 4.92428 124.967 5.20771 125.26 5.36314C125.15 5.61914 124.935 5.994 124.615 6.48771C124.295 6.98143 123.907 7.53 123.449 8.13343C123.001 8.73685 122.508 9.34028 121.968 9.94371C121.429 10.5471 120.885 11.082 120.336 11.5483C120.784 12.0603 121.241 12.6226 121.708 13.2351C122.174 13.8386 122.617 14.4511 123.038 15.0729C123.468 15.6854 123.861 16.2706 124.217 16.8283C124.574 17.386 124.871 17.8751 125.109 18.2957C125.356 18.7163 125.52 19.0271 125.603 19.2283C125.374 19.3837 125.031 19.5849 124.574 19.8317C124.117 20.0786 123.628 20.3209 123.107 20.5586C122.595 20.7963 122.133 20.9791 121.721 21.1071C121.63 20.8786 121.475 20.554 121.255 20.1334C121.036 19.7037 120.78 19.2237 120.487 18.6934C120.195 18.154 119.879 17.6054 119.541 17.0477C119.212 16.49 118.883 15.9597 118.553 15.4569C118.224 14.954 117.918 14.5289 117.635 14.1814C117.488 14.3003 117.342 14.4054 117.196 14.4969C117.049 14.5791 116.912 14.6569 116.784 14.73C116.83 15.2877 116.876 15.9049 116.921 16.5814C116.967 17.2489 117.008 17.898 117.045 18.5289C117.081 19.1597 117.109 19.7037 117.127 20.1609C117.155 20.618 117.168 20.9106 117.168 21.0386C117.004 21.0477 116.675 21.0751 116.181 21.1209C115.687 21.1666 115.12 21.2214 114.48 21.2854C113.849 21.3586 113.223 21.4317 112.601 21.5049Z" fill="#0B0F07"/>
<path d="M127.709 21.5049C127.709 20.9837 127.695 20.2934 127.667 19.434C127.649 18.5654 127.622 17.5917 127.585 16.5129C127.549 15.434 127.503 14.3003 127.448 13.1117C127.393 11.9231 127.338 10.7391 127.283 9.55971C127.229 8.37114 127.174 7.242 127.119 6.17228C127.073 5.09343 127.023 4.13343 126.968 3.29228C127.288 3.22828 127.654 3.18714 128.065 3.16885C128.477 3.14143 128.865 3.12771 129.231 3.12771C129.661 3.12771 130.063 3.146 130.438 3.18257C130.822 3.21 131.119 3.242 131.329 3.27857C131.338 3.51628 131.352 3.90028 131.37 4.43057C131.389 4.95171 131.411 5.55514 131.439 6.24085C131.466 6.92657 131.494 7.626 131.521 8.33914C131.558 9.05228 131.59 9.71057 131.617 10.314C131.974 10.0031 132.362 9.60085 132.783 9.10714C133.213 8.60428 133.656 8.03286 134.113 7.39286C134.579 6.75286 135.037 6.06714 135.485 5.33571C135.933 4.60428 136.358 3.84543 136.76 3.05914C137.473 3.60771 138.177 4.09228 138.872 4.51286C139.576 4.92428 140.074 5.20771 140.367 5.36314C140.257 5.61914 140.042 5.994 139.722 6.48771C139.402 6.98143 139.014 7.53 138.557 8.13343C138.109 8.73685 137.615 9.34028 137.075 9.94371C136.536 10.5471 135.992 11.082 135.443 11.5483C135.891 12.0603 136.349 12.6226 136.815 13.2351C137.281 13.8386 137.725 14.4511 138.145 15.0729C138.575 15.6854 138.968 16.2706 139.325 16.8283C139.681 17.386 139.978 17.8751 140.216 18.2957C140.463 18.7163 140.627 19.0271 140.71 19.2283C140.481 19.3837 140.138 19.5849 139.681 19.8317C139.224 20.0786 138.735 20.3209 138.214 20.5586C137.702 20.7963 137.24 20.9791 136.829 21.1071C136.737 20.8786 136.582 20.554 136.362 20.1334C136.143 19.7037 135.887 19.2237 135.594 18.6934C135.302 18.154 134.986 17.6054 134.648 17.0477C134.319 16.49 133.99 15.9597 133.661 15.4569C133.331 14.954 133.025 14.5289 132.742 14.1814C132.595 14.3003 132.449 14.4054 132.303 14.4969C132.157 14.5791 132.019 14.6569 131.891 14.73C131.937 15.2877 131.983 15.9049 132.029 16.5814C132.074 17.2489 132.115 17.898 132.152 18.5289C132.189 19.1597 132.216 19.7037 132.234 20.1609C132.262 20.618 132.275 20.9106 132.275 21.0386C132.111 21.0477 131.782 21.0751 131.288 21.1209C130.794 21.1666 130.227 21.2214 129.587 21.2854C128.957 21.3586 128.33 21.4317 127.709 21.5049Z" fill="#0B0F07"/>
<path d="M146.258 21.2717C146.029 21.2717 145.714 21.2626 145.312 21.2443C144.909 21.2351 144.475 21.2214 144.009 21.2031C143.552 21.194 143.104 21.1803 142.665 21.162C142.235 21.1437 141.879 21.1254 141.595 21.1071C141.696 20.5403 141.833 19.818 142.007 18.9403C142.189 18.0626 142.4 17.0889 142.637 16.0191C142.875 14.9494 143.127 13.834 143.392 12.6729C143.657 11.5026 143.931 10.3414 144.215 9.18943C144.498 8.03743 144.772 6.94485 145.037 5.91171C145.303 4.87857 145.549 3.95971 145.778 3.15514C146.701 3.03628 147.611 2.94028 148.507 2.86714C149.412 2.78486 150.29 2.74371 151.14 2.74371C151.625 2.74371 152.109 2.75743 152.594 2.78486C153.079 2.81228 153.559 2.858 154.034 2.922C154.208 3.72657 154.386 4.65 154.569 5.69228C154.752 6.73457 154.935 7.96428 155.117 9.38143C155.309 10.7894 155.497 12.4489 155.68 14.3597C155.872 16.2614 156.064 18.4786 156.256 21.0111C155.954 21.0477 155.524 21.0889 154.967 21.1346C154.409 21.1803 153.824 21.2123 153.211 21.2306C152.608 21.258 152.068 21.2717 151.593 21.2717C151.575 21.0066 151.556 20.7049 151.538 20.3666C151.529 20.0283 151.515 19.6671 151.497 19.2831C151.479 18.8991 151.46 18.5106 151.442 18.1174C151.433 17.7243 151.424 17.3449 151.415 16.9791C151.405 16.6134 151.396 16.2751 151.387 15.9643C151.095 15.9734 150.779 15.9871 150.441 16.0054C150.103 16.0146 149.76 16.0329 149.412 16.0603C149.074 16.0786 148.754 16.1014 148.452 16.1289C148.151 16.1471 147.885 16.17 147.657 16.1974C147.428 16.2249 147.264 16.2477 147.163 16.266C147.026 16.8877 146.898 17.514 146.779 18.1449C146.66 18.7757 146.555 19.3654 146.464 19.914C146.372 20.4534 146.304 20.906 146.258 21.2717ZM147.725 12.4671C147.936 12.4306 148.265 12.3894 148.713 12.3437C149.161 12.298 149.627 12.2614 150.112 12.234C150.596 12.2066 150.989 12.1883 151.291 12.1791C151.273 11.9871 151.25 11.626 151.223 11.0957C151.204 10.5563 151.177 9.97114 151.14 9.34028C151.104 8.70028 151.067 8.11514 151.031 7.58486C151.003 7.04543 150.976 6.67514 150.948 6.474C150.802 6.474 150.583 6.48314 150.29 6.50143C149.997 6.51971 149.714 6.538 149.44 6.55628C149.165 6.57457 148.973 6.59286 148.864 6.61114C148.809 6.87628 148.731 7.24657 148.631 7.722C148.539 8.18828 148.439 8.70943 148.329 9.28543C148.219 9.86143 148.109 10.4283 148 10.986C147.899 11.5346 147.808 12.0283 147.725 12.4671Z" fill="#0B0F07"/>
<path d="M59.1344 43.1085C59.1344 42.7125 59.137 42.2162 59.1421 41.6196C59.1472 41.0231 59.155 40.3725 59.1652 39.6679C59.1755 38.9582 59.1884 38.2331 59.2038 37.4925C59.2192 36.7519 59.2372 36.0371 59.2578 35.3479C59.2784 34.6588 59.3041 34.0391 59.335 33.4888C59.5818 33.4631 59.8724 33.4425 60.2067 33.4271C60.5461 33.4116 60.8778 33.4013 61.2018 33.3962C61.531 33.3859 61.8087 33.3808 62.035 33.3808C62.2612 33.3756 62.3872 33.3731 62.413 33.3731C62.4232 33.3936 62.4592 33.5171 62.521 33.7433C62.5878 33.9696 62.6701 34.2628 62.7678 34.6228C62.8707 34.9828 62.9812 35.3788 63.0995 35.8108C63.2178 36.2428 63.3361 36.6825 63.4544 37.1299C63.5778 37.5773 63.6935 38.0016 63.8015 38.4028C63.9095 38.7988 63.997 39.1408 64.0638 39.4288C64.1358 39.7168 64.1821 39.9148 64.2027 40.0228L63.9172 40.0614C63.9687 39.9174 64.0458 39.6808 64.1487 39.3516C64.2515 39.0225 64.3672 38.6419 64.4958 38.2099C64.6295 37.7728 64.7632 37.3151 64.897 36.8368C65.0358 36.3534 65.1695 35.8853 65.2981 35.4328C65.4267 34.9802 65.5372 34.5765 65.6298 34.2216C65.7275 33.8616 65.797 33.5891 65.8381 33.4039C66.0541 33.4039 66.3292 33.4091 66.6635 33.4193C67.003 33.4296 67.345 33.4451 67.6895 33.4656C68.0341 33.4862 68.3195 33.5171 68.5458 33.5582C68.6487 34.0211 68.7207 34.6202 68.7618 35.3556C68.803 36.0859 68.8235 36.8599 68.8235 37.6776C68.8235 38.3359 68.8132 39.0045 68.7927 39.6833C68.7772 40.3571 68.7541 40.9896 68.7232 41.5811C68.6924 42.1725 68.659 42.6713 68.623 43.0776C68.371 43.0776 68.0984 43.0725 67.8052 43.0622C67.5121 43.0519 67.2318 43.0391 66.9644 43.0236C66.7021 43.0031 66.4938 42.9876 66.3395 42.9773C66.3652 42.6431 66.3884 42.2136 66.409 41.6891C66.4347 41.1645 66.4552 40.6219 66.4707 40.0614C66.4861 39.7168 66.4964 39.3696 66.5015 39.0199C66.5118 38.6702 66.5195 38.3513 66.5247 38.0634C66.535 37.7753 66.5427 37.5516 66.5478 37.3922C66.4912 37.5928 66.4115 37.8551 66.3087 38.1791C66.211 38.4979 66.0978 38.8502 65.9692 39.2359C65.8458 39.6216 65.7147 40.0125 65.5758 40.4085C65.4421 40.7994 65.311 41.1722 65.1824 41.5271C65.059 41.8819 64.9484 42.1879 64.8507 42.4451C64.7581 42.7022 64.6861 42.8822 64.6347 42.9851C64.5627 42.9902 64.4521 42.9953 64.303 43.0005C64.159 43.0005 64.0484 43.0005 63.9712 43.0005C63.8324 43.0005 63.6884 42.9953 63.5392 42.9851C63.3952 42.9696 63.2358 42.9516 63.061 42.9311C63.0455 42.8642 63.0121 42.7253 62.9607 42.5145C62.9144 42.3036 62.8527 42.0439 62.7755 41.7354C62.6984 41.4268 62.6135 41.0899 62.521 40.7248C62.4335 40.3545 62.3435 39.9791 62.251 39.5985C62.1584 39.2128 62.0658 38.8399 61.9732 38.4799C61.8807 38.1199 61.7958 37.7934 61.7187 37.5002C61.6467 37.2071 61.585 36.9705 61.5335 36.7905C61.5387 37.2791 61.5412 37.7985 61.5412 38.3488C61.5464 38.8991 61.549 39.4391 61.549 39.9688C61.549 40.4985 61.549 40.9871 61.549 41.4345C61.5541 41.8768 61.5567 42.2445 61.5567 42.5376C61.5567 42.8308 61.5567 43.0082 61.5567 43.0699C61.3767 43.0751 61.1478 43.0828 60.8701 43.0931C60.5924 43.0982 60.3018 43.1034 59.9984 43.1085C59.695 43.1085 59.407 43.1085 59.1344 43.1085Z" fill="#4B5047"/>
<path d="M77.7092 41.7276C77.5652 41.9025 77.3852 42.0748 77.1692 42.2445C76.9532 42.4142 76.6935 42.5685 76.39 42.7074C76.0918 42.8411 75.7497 42.9491 75.364 43.0313C74.9783 43.1085 74.5463 43.1471 74.068 43.1471C73.2915 43.1471 72.6023 43.0005 72.0006 42.7074C71.3989 42.4091 70.9283 41.9694 70.5889 41.3882C70.2546 40.8019 70.0875 40.0742 70.0875 39.2051C70.0875 38.3359 70.2623 37.5799 70.612 36.9371C70.9618 36.2891 71.4503 35.7876 72.0778 35.4328C72.7052 35.0728 73.438 34.8928 74.2763 34.8928C75.3358 34.8928 76.1689 35.1885 76.7758 35.7799C77.3878 36.3662 77.7066 37.1788 77.7323 38.2176C77.7375 38.4079 77.7349 38.5802 77.7246 38.7345C77.7143 38.8888 77.6938 39.0533 77.6629 39.2282C77.5858 39.2231 77.4212 39.2179 77.1692 39.2128C76.9172 39.2076 76.6318 39.2025 76.3129 39.1973C75.9992 39.1871 75.7009 39.1794 75.418 39.1742C75.1403 39.1691 74.9346 39.1665 74.8009 39.1665C74.3535 39.1665 73.9189 39.1871 73.4972 39.2282C73.0806 39.2694 72.7309 39.3131 72.448 39.3594C72.448 39.4519 72.4532 39.5445 72.4635 39.6371C72.4789 39.7245 72.4995 39.8094 72.5252 39.8916C72.592 40.1025 72.7078 40.2825 72.8723 40.4316C73.042 40.5808 73.2426 40.6965 73.474 40.7788C73.7106 40.8559 73.96 40.8945 74.2223 40.8945C74.4589 40.8945 74.6749 40.8662 74.8703 40.8096C75.0709 40.7479 75.2535 40.6682 75.418 40.5705C75.5826 40.4728 75.7318 40.3674 75.8655 40.2542C76.0043 40.1359 76.1329 40.0202 76.2512 39.9071C76.282 39.9328 76.3618 40.0099 76.4903 40.1385C76.6189 40.2619 76.7629 40.4162 76.9223 40.6014C77.0818 40.7814 77.2335 40.9716 77.3775 41.1722C77.5215 41.3728 77.632 41.5579 77.7092 41.7276ZM72.5329 37.9168C72.7643 37.8808 73.0498 37.8474 73.3892 37.8165C73.7286 37.7856 74.122 37.7702 74.5695 37.7702C74.8112 37.7702 75.0246 37.7728 75.2098 37.7779C75.4 37.7831 75.5338 37.7882 75.6109 37.7934C75.6109 37.6853 75.5955 37.5671 75.5646 37.4385C75.5235 37.2636 75.4412 37.0965 75.3178 36.9371C75.1995 36.7776 75.0452 36.6491 74.8549 36.5513C74.6698 36.4536 74.446 36.4048 74.1837 36.4048C73.8546 36.4048 73.5666 36.4768 73.3197 36.6208C73.078 36.7648 72.8903 36.9525 72.7566 37.1839C72.6229 37.4154 72.5483 37.6596 72.5329 37.9168Z" fill="#4B5047"/>
<path d="M79.2616 43.1702C79.2358 42.8359 79.2101 42.4091 79.1844 41.8896C79.1638 41.3702 79.1433 40.8071 79.1227 40.2002C79.1073 39.5882 79.0919 38.9813 79.0764 38.3796C79.0661 37.7779 79.0584 37.2225 79.0533 36.7133C79.0481 36.1991 79.0456 35.7851 79.0456 35.4714C79.169 35.4405 79.3336 35.4096 79.5393 35.3788C79.745 35.3428 79.9636 35.3119 80.195 35.2862C80.4264 35.2553 80.645 35.2322 80.8507 35.2168C81.0616 35.1962 81.2313 35.1859 81.3598 35.1859C81.365 35.2682 81.3701 35.3736 81.3753 35.5022C81.3804 35.6256 81.383 35.7542 81.383 35.8879C81.3881 36.0216 81.3907 36.1425 81.3907 36.2505C81.3907 36.3585 81.3907 36.4408 81.3907 36.4974C81.4216 36.3996 81.4936 36.2736 81.6067 36.1194C81.7198 35.9651 81.8741 35.8108 82.0696 35.6565C82.2701 35.5022 82.5118 35.3736 82.7947 35.2708C83.0776 35.1628 83.4041 35.1088 83.7744 35.1088C84.1293 35.1088 84.4301 35.1756 84.677 35.3094C84.9238 35.4431 85.1296 35.6179 85.2941 35.8339C85.4587 36.0499 85.5873 36.2839 85.6798 36.5359C85.7261 36.6594 85.7621 36.7854 85.7878 36.9139C85.8187 37.0425 85.8418 37.1685 85.8573 37.2919C85.9704 36.9165 86.1581 36.5591 86.4204 36.2196C86.6878 35.8751 87.0196 35.5948 87.4156 35.3788C87.8116 35.1576 88.2667 35.0471 88.781 35.0471C89.3981 35.0471 89.9047 35.1576 90.3007 35.3788C90.7018 35.5999 91.013 35.9265 91.2341 36.3585C91.4553 36.7905 91.6096 37.3202 91.697 37.9476C91.7844 38.5751 91.8281 39.2925 91.8281 40.0999C91.8281 40.4188 91.8204 40.7531 91.805 41.1028C91.7947 41.4525 91.7793 41.8048 91.7587 42.1596C91.7381 42.5145 91.7176 42.8591 91.697 43.1934C91.5118 43.2036 91.319 43.2113 91.1184 43.2165C90.9178 43.2268 90.7173 43.2319 90.5167 43.2319C90.3161 43.2319 90.1104 43.2268 89.8996 43.2165C89.6938 43.2113 89.4856 43.2011 89.2747 43.1856C89.3776 42.4193 89.4624 41.7148 89.5293 41.0719C89.5961 40.4239 89.6296 39.8556 89.6296 39.3671C89.6296 38.6522 89.5473 38.1071 89.3827 37.7316C89.2233 37.3562 88.9481 37.1685 88.5573 37.1685C88.2024 37.1685 87.9144 37.2765 87.6933 37.4925C87.4721 37.7085 87.2998 38.0068 87.1764 38.3873C87.053 38.7679 86.963 39.2102 86.9064 39.7142C86.855 40.2131 86.819 40.7479 86.7984 41.3188C86.7881 41.6068 86.7778 41.9076 86.7676 42.2214C86.7573 42.5351 86.7521 42.8539 86.7521 43.1779C86.6493 43.1831 86.5027 43.1882 86.3124 43.1934C86.1273 43.2036 85.9318 43.2088 85.7261 43.2088C85.4844 43.2088 85.2504 43.2036 85.0241 43.1934C84.803 43.1882 84.641 43.1779 84.5381 43.1625C84.533 42.8128 84.5304 42.4836 84.5304 42.1751C84.5304 41.8665 84.5304 41.5502 84.5304 41.2262C84.5304 40.6399 84.515 40.0999 84.4841 39.6062C84.4584 39.1074 84.4018 38.6754 84.3144 38.3102C84.227 37.9399 84.0958 37.6519 83.921 37.4462C83.7513 37.2405 83.5198 37.1376 83.2267 37.1376C83.0261 37.1376 82.8307 37.1814 82.6404 37.2688C82.4501 37.3562 82.2753 37.4693 82.1158 37.6082C81.9616 37.7471 81.8304 37.9014 81.7224 38.0711C81.6196 38.2356 81.5476 38.4002 81.5064 38.5648C81.5373 39.3825 81.5707 40.1282 81.6067 40.8019C81.6427 41.4756 81.6761 42.0259 81.707 42.4528C81.7378 42.8745 81.7584 43.1291 81.7687 43.2165C81.7121 43.2216 81.5938 43.2268 81.4138 43.2319C81.2338 43.2371 81.077 43.2396 80.9433 43.2396C80.6193 43.2396 80.2953 43.2319 79.9713 43.2165C79.6473 43.2011 79.4107 43.1856 79.2616 43.1702Z" fill="#4B5047"/>
<path d="M100.837 41.7276C100.693 41.9025 100.513 42.0748 100.297 42.2445C100.081 42.4142 99.8213 42.5685 99.5178 42.7074C99.2195 42.8411 98.8775 42.9491 98.4918 43.0313C98.1061 43.1085 97.6741 43.1471 97.1958 43.1471C96.4193 43.1471 95.7301 43.0005 95.1284 42.7074C94.5267 42.4091 94.0561 41.9694 93.7167 41.3882C93.3824 40.8019 93.2153 40.0742 93.2153 39.2051C93.2153 38.3359 93.3901 37.5799 93.7398 36.9371C94.0895 36.2891 94.5781 35.7876 95.2055 35.4328C95.833 35.0728 96.5658 34.8928 97.4041 34.8928C98.4635 34.8928 99.2967 35.1885 99.9035 35.7799C100.516 36.3662 100.834 37.1788 100.86 38.2176C100.865 38.4079 100.863 38.5802 100.852 38.7345C100.842 38.8888 100.822 39.0533 100.791 39.2282C100.714 39.2231 100.549 39.2179 100.297 39.2128C100.045 39.2076 99.7595 39.2025 99.4407 39.1973C99.127 39.1871 98.8287 39.1794 98.5458 39.1742C98.2681 39.1691 98.0624 39.1665 97.9287 39.1665C97.4813 39.1665 97.0467 39.1871 96.625 39.2282C96.2084 39.2694 95.8587 39.3131 95.5758 39.3594C95.5758 39.4519 95.581 39.5445 95.5913 39.6371C95.6067 39.7245 95.6273 39.8094 95.653 39.8916C95.7198 40.1025 95.8355 40.2825 96.0001 40.4316C96.1698 40.5808 96.3704 40.6965 96.6018 40.7788C96.8384 40.8559 97.0878 40.8945 97.3501 40.8945C97.5867 40.8945 97.8027 40.8662 97.9981 40.8096C98.1987 40.7479 98.3813 40.6682 98.5458 40.5705C98.7104 40.4728 98.8595 40.3674 98.9933 40.2542C99.1321 40.1359 99.2607 40.0202 99.379 39.9071C99.4098 39.9328 99.4895 40.0099 99.6181 40.1385C99.7467 40.2619 99.8907 40.4162 100.05 40.6014C100.21 40.7814 100.361 40.9716 100.505 41.1722C100.649 41.3728 100.76 41.5579 100.837 41.7276ZM95.6607 37.9168C95.8921 37.8808 96.1775 37.8474 96.517 37.8165C96.8564 37.7856 97.2498 37.7702 97.6973 37.7702C97.939 37.7702 98.1524 37.7728 98.3375 37.7779C98.5278 37.7831 98.6615 37.7882 98.7387 37.7934C98.7387 37.6853 98.7233 37.5671 98.6924 37.4385C98.6513 37.2636 98.569 37.0965 98.4455 36.9371C98.3273 36.7776 98.173 36.6491 97.9827 36.5513C97.7975 36.4536 97.5738 36.4048 97.3115 36.4048C96.9824 36.4048 96.6944 36.4768 96.4475 36.6208C96.2058 36.7648 96.0181 36.9525 95.8844 37.1839C95.7507 37.4154 95.6761 37.6596 95.6607 37.9168Z" fill="#4B5047"/>
<path d="M114.564 41.3034C114.307 41.6273 113.991 41.9334 113.615 42.2214C113.245 42.5094 112.823 42.7459 112.35 42.9311C111.877 43.1111 111.36 43.2011 110.8 43.2011C110.085 43.2011 109.452 43.0751 108.902 42.8231C108.352 42.5659 107.889 42.2034 107.513 41.7354C107.138 41.2673 106.853 40.7171 106.657 40.0845C106.467 39.4468 106.372 38.7499 106.372 37.9939C106.372 37.0116 106.541 36.1348 106.881 35.3633C107.22 34.5919 107.714 33.9851 108.362 33.5428C109.01 33.1005 109.802 32.8793 110.738 32.8793C111.499 32.8793 112.204 33.0414 112.852 33.3653C113.505 33.6842 114.017 34.1651 114.387 34.8079C114.248 34.9622 114.063 35.1345 113.831 35.3248C113.605 35.5099 113.374 35.6899 113.137 35.8648C112.906 36.0345 112.705 36.1734 112.535 36.2813C112.515 36.2248 112.463 36.1296 112.381 35.9959C112.304 35.8622 112.196 35.7208 112.057 35.5716C111.918 35.4225 111.743 35.2965 111.533 35.1936C111.322 35.0856 111.075 35.0316 110.792 35.0316C110.525 35.0316 110.283 35.0985 110.067 35.2322C109.851 35.3608 109.666 35.5485 109.511 35.7953C109.357 36.0422 109.239 36.3354 109.157 36.6748C109.074 37.0142 109.033 37.3922 109.033 37.8088C109.033 38.2048 109.069 38.5776 109.141 38.9273C109.213 39.2771 109.319 39.5882 109.457 39.8608C109.596 40.1282 109.774 40.3365 109.99 40.4856C110.211 40.6348 110.465 40.7093 110.753 40.7093C111.036 40.7093 111.301 40.6579 111.548 40.5551C111.795 40.4471 112.026 40.3056 112.242 40.1308C112.458 39.9559 112.656 39.7682 112.836 39.5676C113.021 39.6962 113.227 39.8608 113.453 40.0614C113.68 40.2619 113.893 40.4728 114.094 40.6939C114.299 40.9151 114.456 41.1182 114.564 41.3034Z" fill="#4B5047"/>
<path d="M119.499 43.2782C118.136 43.2782 117.11 42.9182 116.421 42.1982C115.732 41.4731 115.388 40.4213 115.388 39.0431C115.388 38.1225 115.565 37.3588 115.92 36.7519C116.275 36.1399 116.766 35.6796 117.393 35.3711C118.026 35.0625 118.756 34.9082 119.584 34.9082C120.428 34.9082 121.127 35.1011 121.682 35.4868C122.243 35.8725 122.662 36.4048 122.94 37.0836C123.218 37.7625 123.356 38.5468 123.356 39.4365C123.356 40.2131 123.207 40.8894 122.909 41.4654C122.611 42.0414 122.174 42.4888 121.598 42.8076C121.027 43.1213 120.327 43.2782 119.499 43.2782ZM119.414 41.0642C119.697 41.0642 119.947 41.0154 120.163 40.9176C120.384 40.8199 120.569 40.6811 120.718 40.5011C120.872 40.3159 120.988 40.0999 121.065 39.8531C121.142 39.6062 121.181 39.3362 121.181 39.0431C121.181 38.5854 121.114 38.1816 120.98 37.8319C120.852 37.4771 120.659 37.2019 120.402 37.0065C120.15 36.8059 119.836 36.7056 119.461 36.7056C119.054 36.7056 118.723 36.8085 118.466 37.0142C118.208 37.2199 118.018 37.4899 117.895 37.8242C117.776 38.1534 117.717 38.5056 117.717 38.8811C117.717 39.5136 117.861 40.0356 118.149 40.4471C118.442 40.8585 118.864 41.0642 119.414 41.0642Z" fill="#4B5047"/>
<path d="M127.22 43.0931C127.133 43.0982 126.966 43.1085 126.719 43.1239C126.477 43.1445 126.22 43.1548 125.947 43.1548C125.747 43.1548 125.544 43.1471 125.338 43.1316C125.137 43.1213 124.939 43.1059 124.744 43.0854C124.77 42.9516 124.798 42.6791 124.829 42.2676C124.865 41.8511 124.898 41.3625 124.929 40.8019C124.965 40.2413 124.999 39.6628 125.029 39.0662C125.065 38.4645 125.091 37.9014 125.107 37.3768C125.127 36.8522 125.137 36.4305 125.137 36.1116C125.24 36.1065 125.392 36.0988 125.593 36.0885C125.793 36.0782 126.009 36.0705 126.241 36.0653C126.472 36.0551 126.693 36.0474 126.904 36.0422C127.115 36.0319 127.282 36.0268 127.405 36.0268C127.431 36.1862 127.452 36.4433 127.467 36.7982C127.483 37.1531 127.49 37.5491 127.49 37.9862C127.49 38.4542 127.483 38.9505 127.467 39.4751C127.457 39.9996 127.439 40.5088 127.413 41.0025C127.393 41.4911 127.364 41.9231 127.328 42.2985C127.292 42.6688 127.256 42.9336 127.22 43.0931ZM126.356 35.0316C125.893 35.0316 125.505 34.8979 125.191 34.6305C124.878 34.3579 124.721 34.0005 124.721 33.5582C124.721 33.2548 124.795 32.9951 124.945 32.7791C125.094 32.5631 125.287 32.3985 125.523 32.2854C125.765 32.1671 126.019 32.1079 126.287 32.1079C126.714 32.1079 127.066 32.2468 127.344 32.5245C127.627 32.8022 127.768 33.1596 127.768 33.5968C127.768 34.0031 127.634 34.3451 127.367 34.6228C127.099 34.8954 126.763 35.0316 126.356 35.0316Z" fill="#4B5047"/>
<path d="M131.932 43.2088C131.778 43.2139 131.588 43.2139 131.361 43.2088C131.135 43.2088 130.904 43.2062 130.667 43.2011C130.477 43.1959 130.258 43.1882 130.011 43.1779C129.765 43.1676 129.592 43.1573 129.495 43.1471C129.541 42.7151 129.579 42.2265 129.61 41.6814C129.646 41.1362 129.675 40.5319 129.695 39.8685C129.716 39.2051 129.731 38.4799 129.741 37.6931C129.752 36.9062 129.757 36.0551 129.757 35.1396C129.952 35.1139 130.184 35.0933 130.451 35.0779C130.719 35.0625 130.989 35.0548 131.261 35.0548C131.451 35.0548 131.634 35.0599 131.809 35.0702C131.989 35.0754 132.148 35.0908 132.287 35.1165C132.287 35.1628 132.287 35.2579 132.287 35.4019C132.292 35.5408 132.292 35.6951 132.287 35.8648C132.287 36.0294 132.285 36.1785 132.279 36.3122C132.413 36.1168 132.632 35.9136 132.935 35.7028C133.239 35.4868 133.591 35.3042 133.992 35.1551C134.393 35.0059 134.807 34.9314 135.234 34.9314C136.021 34.9314 136.623 35.0908 137.039 35.4096C137.456 35.7234 137.741 36.1965 137.895 36.8291C138.05 37.4565 138.127 38.2433 138.127 39.1896C138.127 39.5188 138.117 39.9045 138.096 40.3468C138.081 40.7839 138.055 41.2442 138.019 41.7276C137.983 42.2111 137.937 42.6791 137.88 43.1316C137.777 43.1419 137.613 43.1496 137.386 43.1548C137.165 43.1651 136.931 43.1702 136.684 43.1702C136.422 43.1702 136.173 43.1651 135.936 43.1548C135.699 43.1496 135.525 43.1419 135.411 43.1316C135.468 42.8436 135.53 42.4836 135.597 42.0516C135.663 41.6196 135.72 41.1594 135.766 40.6708C135.813 40.1771 135.836 39.7065 135.836 39.2591C135.836 38.8271 135.8 38.4516 135.728 38.1328C135.661 37.8139 135.53 37.5671 135.334 37.3922C135.144 37.2122 134.861 37.1222 134.486 37.1222C134.177 37.1222 133.881 37.1762 133.599 37.2842C133.316 37.3922 133.059 37.5259 132.827 37.6853C132.596 37.8396 132.398 37.9913 132.233 38.1405C132.228 38.9531 132.207 39.6885 132.171 40.3468C132.135 40.9999 132.097 41.5682 132.056 42.0516C132.015 42.5299 131.973 42.9156 131.932 43.2088Z" fill="#4B5047"/>
<path d="M42.5304 9.16695L42.5295 9.16784C42.5224 9.17374 42.516 9.17344 42.5101 9.16695C41.8929 8.49967 41.2666 7.87781 40.6312 7.30139C38.6444 5.49778 36.4018 4.15348 33.9433 3.13131C31.253 2.01268 28.4083 1.44924 25.4094 1.44098C16.5302 1.41531 8.44053 6.50136 4.6209 14.5353C2.05443 19.9329 1.68361 26.1862 3.66777 31.8537C5.4935 37.069 9.08834 41.4718 13.8469 44.1887C18.2878 46.7251 23.024 47.6992 28.0555 47.111C30.8963 46.7794 33.5855 45.9319 36.1231 44.5684C40.0843 42.4409 43.1682 39.4092 45.3748 35.4733C45.3801 35.4639 45.3872 35.4615 45.396 35.4662L45.3969 35.4671C45.4087 35.473 45.4116 35.4819 45.4057 35.4937C45.3379 35.6323 45.2674 35.7689 45.1942 35.9034C44.0909 37.9354 42.675 39.826 40.9463 41.5753C40.4589 42.0692 39.9515 42.5303 39.4241 42.9586C35.1254 46.4514 30.2337 48.2939 24.7492 48.4863C21.3251 48.6066 17.7365 47.9358 14.5195 46.5145C9.90991 44.4766 6.28675 41.3396 3.65007 37.1035C0.4756 32.0006 -0.612939 25.8057 0.506576 19.932C0.626345 19.3048 0.760863 18.7281 0.910132 18.2018C2.46359 12.7285 5.49882 8.34332 10.0158 5.04643C12.115 3.51422 14.4582 2.35075 17.0453 1.55602C22.7597 -0.200684 28.9228 0.247122 34.3283 2.80386C37.506 4.30717 40.2406 6.41994 42.5322 9.14217C42.5398 9.15102 42.5393 9.15928 42.5304 9.16695Z" fill="#84DD18"/>
<path d="M28.3078 9.48199C28.7972 8.25628 29.4565 7.02171 30.3035 6.0615C30.5725 5.75647 30.8699 5.4954 31.1955 5.27828C33.3797 3.82335 34.755 6.86064 35.3019 8.42708C36.1028 10.7219 36.4294 13.0954 36.4258 15.5008C36.4258 15.5256 36.4341 15.5471 36.4506 15.5654C38.4693 17.7921 40.3348 20.0789 41.942 22.3993C42.5939 23.3404 43.1659 24.2855 43.658 25.2348C46.32 30.374 44.204 36.307 40.1924 40.0124C38.8053 41.2933 37.2403 42.2588 35.4975 42.909C35.2526 43.0005 35.237 42.971 35.4506 42.8205C35.8081 42.5686 36.1648 42.3093 36.5205 42.0426C41.4959 38.3141 45.5191 32.2502 42.5464 25.8535C42.2945 25.3124 42.0089 24.7738 41.6898 24.2375C40.3658 22.0132 38.8463 19.8747 37.1312 17.8222C36.5612 17.1407 35.8718 16.5124 35.2745 15.8176C35.2402 15.7771 35.222 15.7255 35.2231 15.6725C35.2691 14.1049 35.1632 12.524 34.9054 10.9298C34.7231 9.80059 34.4373 8.76279 34.0479 7.81644C33.7107 6.99516 33.0036 5.94468 31.9327 6.37302C31.1761 6.67568 30.5123 7.49253 30.1681 8.1784C29.7264 9.05808 29.3468 10.1139 29.0176 11.0785C29.004 11.1169 28.9774 11.1316 28.9379 11.1228C26.3874 10.5564 23.7749 10.528 21.2526 11.113C20.2078 11.3555 19.2352 11.6535 18.3348 12.0069C17.5956 12.2971 16.9563 12.642 16.4171 13.0414C16.3876 13.0633 16.3581 13.0636 16.3286 13.0423C15.2303 12.2688 14.04 11.5945 12.8054 11.1298C11.8222 10.7599 10.5664 10.4935 9.61324 10.8776C8.46186 11.3422 8.26539 12.6317 8.35212 13.7715C8.47602 15.3987 8.94035 16.9056 9.7451 18.2921C10.5956 19.7576 11.7443 21.0223 13.0081 22.2604C13.0346 22.2863 13.0435 22.317 13.0346 22.3524C12.316 25.2092 11.877 28.3536 11.8638 31.313C11.854 33.7582 12.1894 36.2025 13.2957 38.3487C16.0188 43.6303 22.273 44.5595 27.5883 44.4347C28.0231 44.4247 28.0278 44.4651 27.6025 44.556C24.0359 45.3188 20.1075 45.2003 16.671 43.8798C11.3646 41.8399 10.2814 36.3672 10.4115 31.2785C10.464 29.2223 10.6398 27.2199 10.939 25.2711C11.0735 24.3938 11.2664 23.5336 11.5177 22.6905C11.5266 22.661 11.5192 22.6365 11.4956 22.617C8.84064 20.3904 6.54586 17.1575 6.55559 13.5724C6.56001 11.6263 7.49988 9.96785 9.47783 9.44305C10.6655 9.12799 11.9045 9.32889 13.0567 9.72802C14.0745 10.0808 15.0515 10.546 15.9878 11.1237C16.0132 11.1394 16.0418 11.149 16.0714 11.152C16.101 11.1549 16.1308 11.1509 16.1586 11.1405C17.8413 10.5168 19.5623 10.0165 21.3217 9.63952C23.5731 9.15631 25.8829 9.1572 28.2096 9.53686C28.23 9.54006 28.2508 9.53638 28.2686 9.52641C28.2865 9.51645 28.3003 9.50078 28.3078 9.48199Z" fill="#0B0F07"/>
<path d="M33.2955 9.39527C32.068 8.91472 31.3122 11.3015 31.1016 12.1104C31.1002 12.1156 31.0977 12.1205 31.0942 12.1246C31.0907 12.1287 31.0863 12.1319 31.0813 12.134C31.0764 12.1362 31.071 12.1372 31.0656 12.1369C31.0602 12.1366 31.055 12.1351 31.0502 12.1326L30.0679 11.6219C30.0595 11.6176 30.0529 11.6106 30.049 11.6019C30.0452 11.5932 30.0443 11.5834 30.0467 11.5741C30.2514 10.7936 30.4918 10.072 30.7679 9.40943C30.9954 8.8625 31.3565 8.22974 31.8759 7.92884C32.3078 7.67839 32.8751 7.8129 33.1698 8.19788C33.4813 8.60586 33.6203 9.13154 33.7521 9.62891C33.7751 9.71682 33.7548 9.72832 33.6911 9.66342C33.5737 9.54188 33.4418 9.4525 33.2955 9.39527Z" fill="#0B0F07"/>
<path d="M46.5456 18.9992C46.5526 18.9963 46.56 18.9948 46.5677 18.9948C46.5706 18.9942 46.5724 18.9921 46.573 18.9886C46.6951 17.6056 46.5125 16.1646 46.0252 14.6654C45.2594 12.3113 44.0637 10.2658 42.4383 8.52887C42.2141 8.28874 41.9781 8.06926 41.7303 7.87043C41.6701 7.82264 41.6784 7.79993 41.7551 7.80229C44.4101 7.89256 46.3314 9.53776 47.2889 11.9467C47.9745 13.6695 48.1899 15.4811 47.935 17.3814C47.6241 19.6978 46.8385 21.7881 45.5783 23.6525C45.4892 23.7841 45.4623 23.7726 45.4977 23.618C46.1199 20.9064 45.3623 18.0275 43.4392 15.977C42.3719 14.8397 41.3507 13.8034 40.8179 12.3096C40.3252 10.9272 40.3748 9.56755 40.9666 8.23062C41.0079 8.1374 41.0639 8.12737 41.1347 8.20053C43.9322 11.0909 46.0951 14.9495 46.534 18.993C46.5346 19.0001 46.5385 19.0022 46.5456 18.9992Z" fill="#84DD18"/>
<path d="M12.9028 12.4644C13.8822 12.9759 14.8459 13.6052 15.794 14.3521C15.7976 14.3549 15.8005 14.3584 15.8026 14.3623C15.8048 14.3663 15.8061 14.3707 15.8065 14.3752C15.8069 14.3798 15.8064 14.3844 15.805 14.3888C15.8036 14.3932 15.8014 14.3972 15.7985 14.4008C15.4079 14.8592 15.0828 15.3427 14.8232 15.8513C14.8025 15.8914 14.7736 15.8988 14.7365 15.8734C14.0364 15.3893 13.347 14.9353 12.5735 14.5795C12.2909 14.4503 12.0045 14.3648 11.7142 14.3229C10.5292 14.153 10.4938 15.8796 10.5991 16.6053C10.6003 16.6136 10.5971 16.6189 10.5894 16.6212C10.5817 16.6236 10.5741 16.6242 10.5664 16.623C10.5628 16.6224 10.5605 16.6206 10.5593 16.6177C10.0861 15.538 9.92211 14.4468 10.0673 13.3441C10.1425 12.7706 10.4283 12.0511 11.0646 11.9591C11.6496 11.875 12.3815 12.1918 12.9028 12.4644Z" fill="#0B0F07"/>
<path d="M31.9892 21.0373C32.9565 22.1267 34.0256 23.1613 34.9415 24.3189C37.2221 27.2022 37.3416 31.3864 34.4663 33.9582C34.3359 34.075 34.2073 34.1871 34.0804 34.2945C34.0556 34.3157 34.0456 34.3426 34.0503 34.375C34.212 35.4577 34.2707 36.5872 34.2264 37.7637C34.1769 39.1071 33.9415 41.0054 32.9591 41.9771C31.7626 43.1603 29.8617 42.2081 28.913 41.2195C28.6327 40.9275 28.3784 40.6254 28.1501 40.3133C27.2403 39.0752 26.4606 37.5548 25.8473 36.0397C25.835 36.0096 25.8134 35.9895 25.7827 35.9795C25.4382 35.8721 25.186 35.7869 25.0261 35.7238C22.4534 34.7104 20.7356 32.436 20.5631 29.6642C20.5076 28.7775 20.5675 27.8178 20.7427 26.7853C20.9374 25.6348 21.1436 24.4923 21.3613 23.3578C21.379 23.2669 21.3587 23.2575 21.3003 23.3294C20.9392 23.7767 20.5421 24.1584 20.1091 24.4746C19.5365 24.8923 18.6842 25.1994 18.0656 24.7649C17.3523 24.2631 17.3302 23.2002 17.4408 22.4347C17.4421 22.4263 17.4459 22.4184 17.4516 22.4121C17.4572 22.4057 17.4646 22.4011 17.4729 22.3989C17.4811 22.3967 17.4898 22.3968 17.4979 22.3994C17.5061 22.402 17.5133 22.4069 17.5187 22.4135C17.955 22.9577 18.7444 22.987 19.1754 22.4276C19.4267 22.1002 19.432 21.6081 19.171 21.278C18.9491 20.9978 18.6562 20.8647 18.2922 20.8789C18.2853 20.8793 18.2785 20.8776 18.2727 20.8741C18.2668 20.8705 18.2622 20.8653 18.2594 20.859C18.2566 20.8528 18.2558 20.8458 18.2571 20.8391C18.2583 20.8324 18.2616 20.8262 18.2665 20.8214C19.5258 19.5311 20.8259 21.1435 21.4684 22.1427C21.5026 22.1952 21.5227 22.1902 21.5286 22.1276C21.6392 20.9594 21.6631 19.8328 21.4197 18.6965C21.3967 18.5868 21.4112 18.5815 21.4631 18.6806C21.8861 19.4812 22.1198 20.3255 22.164 21.2134C22.2018 21.9686 22.1637 22.7117 22.0498 23.4427C21.9012 24.4003 21.7413 25.3652 21.5702 26.3375C21.3442 27.6214 21.3185 28.8332 21.4932 29.9731C21.7976 31.9599 23.0278 33.89 24.911 34.6007C25.3925 34.7824 25.9246 34.8945 26.5075 34.937C27.2173 34.9883 28.6935 35.1175 29.1298 34.4821C29.3448 34.1688 29.1599 33.7113 28.9307 33.4582C28.7519 33.2605 28.5398 33.0823 28.2943 32.9236C27.5943 32.4714 26.9031 32.028 26.3288 31.4156C25.5535 30.5873 24.9455 29.5554 24.8535 28.4403C24.5986 25.349 28.0306 24.1401 30.4882 24.2967C31.3299 24.3507 32.2122 24.5968 32.7786 25.2304C33.653 26.2101 33.8521 27.7349 33.6901 29.0208C33.5078 30.4669 32.8344 31.4776 31.9078 32.5219C31.7048 32.7502 31.5013 32.9868 31.2971 33.2316C31.2375 33.303 31.1948 33.3827 31.1688 33.4706C31.0095 33.9998 31.5387 34.152 31.9361 34.1095C33.1273 33.9803 34.1804 33.4015 34.8521 32.3581C36.2389 30.2032 36.0619 27.465 34.7583 25.3578C34.4297 24.8257 34.012 24.269 33.5052 23.6879C32.8031 22.8837 32.1337 22.1138 31.4971 21.378C30.69 20.4447 30.0534 19.4393 29.5873 18.362C29.4032 17.9372 29.2696 17.5018 29.19 17.038C29.1652 16.8894 29.1835 16.8838 29.2448 17.0212C29.6608 17.9428 30.2351 18.8626 30.9679 19.7806C30.9719 19.7855 30.9771 19.7893 30.9829 19.7917C30.9887 19.7941 30.9951 19.795 31.0013 19.7942C31.0075 19.7935 31.0133 19.7913 31.0183 19.7876C31.0233 19.784 31.0273 19.7792 31.0299 19.7735C31.3989 18.947 32.0768 17.8726 33.0751 17.8319C33.1854 17.8272 33.199 17.8608 33.1158 17.9328C32.4697 18.493 32.9786 19.4665 33.7946 19.2921C34.0807 19.2308 34.2834 19.0555 34.4026 18.7664C34.4058 18.7586 34.4112 18.7518 34.418 18.7468C34.4248 18.7417 34.4329 18.7386 34.4413 18.7378C34.4498 18.737 34.4583 18.7385 34.466 18.7421C34.4736 18.7458 34.4802 18.7514 34.4849 18.7585C35.0344 19.578 35.4327 21.0718 34.0043 21.3223C33.3069 21.4444 32.6467 21.335 32.0237 20.9939C31.9287 20.942 31.9172 20.9565 31.9892 21.0373ZM31.9387 25.9446C31.9859 25.9564 32.0184 25.9632 32.0361 25.9649C32.1034 25.9703 32.1113 25.9511 32.06 25.9074C30.6759 24.7339 28.5005 25.0977 27.0377 25.934C26.5952 26.1871 26.0668 26.6623 26.004 27.2039C25.9969 27.2659 26.017 27.2762 26.0642 27.2349C26.5356 26.819 27.0875 26.4998 27.72 26.2774C29.0386 25.8136 30.5794 25.6074 31.9387 25.9446ZM31.5839 39.5814C31.3821 38.6637 31.1254 37.8336 30.5962 37.061C30.4782 36.8887 30.3493 36.7669 30.2095 36.6955C29.8112 36.4919 29.3941 36.3733 28.9581 36.3397C27.8173 36.2521 27.4651 37.1937 27.7926 38.1362C28.1637 39.2047 28.7652 40.1351 29.5971 40.9275C30.5927 41.8744 32.1892 42.4063 32.9901 40.9054C33.1258 40.6511 33.2338 40.3599 33.314 40.0319C33.5229 39.1805 34.3194 35.2476 32.2865 35.8795C31.9107 35.9957 31.5508 36.2545 31.2069 36.6556C31.1844 36.6816 31.1782 36.7108 31.1883 36.7433C31.4408 37.5811 31.5844 38.5256 31.6193 39.577C31.624 39.7086 31.6122 39.71 31.5839 39.5814Z" fill="#0B0F07"/>
<path d="M27.1528 43.0462C28.5871 43.868 30.057 44.2129 31.5627 44.0807C33.2076 43.9362 34.4519 43.1925 35.2956 41.8497C35.3693 41.7323 35.403 41.7429 35.3965 41.8815C35.3935 41.9411 35.3844 42.001 35.369 42.0612C34.3814 45.8764 29.0077 45.8605 26.9926 43.0763C26.9312 42.9913 26.9498 42.9656 27.0483 42.9993C27.0837 43.0111 27.1186 43.0267 27.1528 43.0462Z" fill="#0B0F07"/>
</svg>
