<svg width="152" height="157" viewBox="0 0 152 157" fill="none" xmlns="http://www.w3.org/2000/svg">
<path d="M22.4196 87.3514C22.9234 86.9559 23.4576 86.6032 24.0268 86.3091C25.5586 85.5324 27.2791 85.1489 29.1199 85.162C24.6754 79.0249 22.7694 65.5498 23.4509 61.1147C15.5158 70.541 17.4569 85.0452 19.0535 92.1333C19.7351 90.2109 20.8654 88.5682 22.4196 87.3514Z" fill="#202020"/>
<path d="M42.5288 93.897C48.112 100.988 48.5028 109.985 43.395 113.995C38.2921 118.022 29.636 115.537 24.0688 108.441C18.4904 101.366 18.0996 92.3693 23.2025 88.3426C28.3103 84.3318 36.9663 86.8168 42.5288 93.897Z" fill="#202020"/>
<path d="M35.3494 59.7216C35.8676 59.3737 36.4272 59.0479 37.0268 58.7966C38.5875 58.1151 40.3416 57.8426 42.1638 57.9655C38.125 51.5665 37.0716 37.9886 38.0137 33.6131C29.5052 42.5203 30.5413 57.1258 31.6951 64.2964C32.4752 62.4134 33.7187 60.8577 35.3494 59.7216Z" fill="#202020"/>
<path d="M55.011 67.5306C60.1235 74.9553 59.9474 83.9677 54.6019 87.6521C49.2564 91.3364 40.7829 88.3108 35.6546 80.891C30.5421 73.4662 30.7182 64.4539 36.0636 60.7695C41.4091 57.0851 49.8826 60.1107 55.011 67.5306Z" fill="#202020"/>
<path d="M126.582 55.2715C125.956 55.1496 125.312 55.085 124.672 55.0886C122.957 55.0893 121.235 55.5252 119.618 56.3627C120.78 48.8877 116.372 36.0162 113.754 32.3573C125.106 37.1605 129.956 50.9724 131.748 58.0186C130.265 56.6146 128.523 55.6703 126.582 55.2715Z" fill="#202020"/>
<path d="M111.619 70.2614C109.863 79.0946 113.617 87.2955 119.977 88.5538C126.337 89.812 132.93 83.6698 134.68 74.8208C136.436 65.9876 132.698 57.7818 126.322 56.5284C119.962 55.2701 113.385 61.4075 111.619 70.2614Z" fill="#202020"/>
<path d="M98.6908 40.8972C98.0618 40.8802 97.4155 40.9204 96.7885 41.024C95.0978 41.2772 93.4785 41.9939 91.9858 43.0707C91.9759 35.5011 85.5718 23.4777 82.4216 20.2922C94.3907 23.2447 101.365 36.1176 104.226 42.8045C102.553 41.6314 100.672 40.9719 98.6908 40.8972Z" fill="#202020"/>
<path d="M86.284 58.039C85.9348 67.0519 90.93 74.5469 97.4172 74.7962C103.905 75.0455 109.442 67.941 109.776 58.9329C110.109 49.9248 105.13 42.425 98.6425 42.1757C92.1552 41.9264 86.6174 49.0309 86.284 58.039Z" fill="#202020"/>
<path d="M62.0902 37.6915C62.6994 37.4719 63.312 37.3207 63.939 37.217C65.6456 36.9591 67.4028 37.1536 69.1391 37.7357C66.8749 30.5036 69.3465 17.1209 71.3953 13.1374C60.8824 19.551 58.1059 33.9273 57.3905 41.1626C58.6305 39.5386 60.2309 38.3597 62.0902 37.6915Z" fill="#202020"/>
<path d="M79.0821 50.2959C82.1094 58.7867 79.6244 67.4427 73.5118 69.627C67.3991 71.8113 59.9894 66.6954 56.9462 58.2094C53.903 49.7235 56.4039 41.0627 62.5165 38.8784C68.6292 36.694 76.0389 41.81 79.0821 50.2959Z" fill="#202020"/>
<path d="M59.6751 144.582C63.8833 143.374 67.9109 141.285 71.4701 138.282C72.2273 137.636 72.9589 136.963 73.6443 136.253C67.2071 140.736 59.5622 142.554 52.1918 141.793C51.2418 141.365 50.2905 140.914 49.3382 140.441C54.7248 146.656 62.1716 148.468 69.9233 146.774C66.6405 146.35 63.2029 145.643 59.6751 144.582Z" fill="#202020"/>
<path d="M57.0057 133.609C57.9289 133.225 58.8265 132.814 59.7097 132.356C54.7702 133.837 49.7075 134.057 44.905 133.192C45.2657 134.076 45.7027 134.983 46.216 135.913C49.8178 135.791 53.4526 135.034 57.0057 133.609Z" fill="#202020"/>
<path d="M52.0282 109.733C54.6 110.841 58.5834 111.348 63.0515 108.484C60.4853 109.107 56.5014 110.94 53.1002 108.697C53.039 108.762 52.9761 108.821 52.9117 108.875C52.6584 109.126 52.3671 109.422 52.0282 109.733Z" fill="#202020"/>
<path d="M81.6495 100.606C81.6495 100.606 82.9549 100.054 84.5482 99.1368C80.9587 97.6442 79.5951 99.375 79.5951 99.375C80.5729 99.6847 81.2597 99.8922 81.6495 100.606Z" fill="#202020"/>
<path d="M90.3064 136.17C87.1004 132.914 80.0405 128.437 76.9024 137.968C78.1487 138.82 80.2184 139.872 82.7723 140.865C83.0185 140.686 83.2646 140.508 83.5107 140.329C85.8337 138.619 88.1212 137.249 90.3064 136.17Z" fill="#202020"/>
<path d="M114.48 90.1915C107.467 88.8369 101.687 86.4666 97.416 81.2993C92.4941 75.359 83.9358 73.1389 76.1951 74.8123C68.8301 77.7232 62.9333 84.3302 62.1589 91.9992C61.5257 98.1351 58.5457 102.99 54.1182 107.644C60.0305 105.884 65.0745 97.8379 73.6729 95.679C73.5153 96.0734 73.3816 96.4894 73.2718 96.9271C73.1758 97.3721 73.1079 97.8144 73.068 98.2539C73.5013 97.1693 74.1463 96.2111 74.9235 95.4034C78.5919 94.758 82.8865 95.2049 88.1257 97.5658C88.248 99.0536 88.248 99.0536 88.248 99.0536C90.891 99.0833 92.0119 98.9511 97.0528 98.3743C96.4373 98.6304 95.8412 98.95 95.285 99.344C95.0177 99.5291 94.7642 99.7216 94.5244 99.9214C95.7817 99.2106 97.1304 98.8013 98.4975 98.681C99.4415 103.333 100.61 113.237 94.1941 120.816C96.3036 112.465 94.0451 109.476 93.2442 107.865C93.8985 107.337 95.5998 105.92 97.0492 103.73C94.1589 106.825 89.4341 108.9 83.8368 112.782C79.3518 115.876 79.2689 118.743 79.0148 120.761C81.1024 117.476 83.4106 116.117 87.7719 114.101C86.6954 115.692 77.8432 120.441 84.0382 126.636C85.759 128.367 88.6343 129.504 90.9786 129.521C92.3935 127.445 92.7128 123.986 92.7128 123.986C92.9461 125.44 93.1647 127.245 92.9866 129.171C93.1389 129.102 93.2842 129.029 93.4227 128.952C95.8641 127.518 96.3269 122.248 96.3269 122.248C96.8457 125.557 97.3162 130.647 93.2842 134.834C93.6237 134.696 93.9595 134.565 94.2915 134.442C97.7497 133.617 101.844 133.12 106.522 133.346C122.266 134.062 134.972 126.48 135.166 111.761C135.424 93.1408 119.4 91.159 114.48 90.1915Z" fill="#202020"/>
</svg>
