<svg width="24" height="33" viewBox="0 0 24 33" fill="none" xmlns="http://www.w3.org/2000/svg">
<path d="M2.03065 14.9054C2.14298 14.8617 2.25844 14.8273 2.37701 14.8055C2.69529 14.7493 3.02605 14.7743 3.35682 14.8773C2.89188 13.5293 3.28505 10.9986 3.65013 10.2372C1.70612 11.501 1.26303 14.2189 1.16318 15.5825C1.39097 15.2736 1.68428 15.0395 2.03065 14.9054Z" fill="#202020"/>
<path d="M5.29391 17.1826C5.91175 18.7647 5.4905 20.406 4.35155 20.8491C3.21261 21.2953 1.78971 20.3748 1.17499 18.7928C0.557153 17.2138 0.978407 15.5725 2.11735 15.1263C3.2563 14.6832 4.6792 15.6037 5.29391 17.1826Z" fill="#202020"/>
<path d="M5.86891 10.6365C5.98125 10.6021 6.09982 10.5741 6.22152 10.5616C6.5398 10.5241 6.87056 10.5709 7.19196 10.6926C6.81439 9.31966 7.3667 6.8171 7.77547 6.08069C5.75658 7.21963 5.14498 9.90629 4.96088 11.2605C5.20427 10.9641 5.51319 10.7519 5.86891 10.6365Z" fill="#202020"/>
<path d="M8.98261 13.1171C9.49747 14.7334 8.97325 16.3467 7.80934 16.718C6.64543 17.0893 5.28494 16.0814 4.76695 14.4651C4.25209 12.8487 4.77631 11.2355 5.94022 10.8641C7.10413 10.4928 8.46462 11.5007 8.98261 13.1171Z" fill="#202020"/>
<path d="M22.5406 14.8208C22.4345 14.7646 22.3221 14.7178 22.2067 14.6835C21.8978 14.5899 21.5639 14.5743 21.2269 14.6367C21.8447 13.3542 21.7542 10.7955 21.4827 9.99353C23.2645 11.4788 23.3831 14.231 23.3207 15.5978C23.1303 15.2639 22.8682 14.9986 22.5406 14.8208Z" fill="#202020"/>
<path d="M19.0267 16.7024C18.2278 18.197 18.4556 19.8789 19.5322 20.4531C20.6087 21.0272 22.1315 20.2815 22.9303 18.7837C23.7291 17.289 23.5044 15.6071 22.4248 15.033C21.3482 14.4588 19.8286 15.2046 19.0267 16.7024Z" fill="#202020"/>
<path d="M18.3036 10.7082C18.1913 10.6708 18.0727 10.6427 17.9541 10.6271C17.6359 10.5803 17.3051 10.6209 16.9774 10.7332C17.3893 9.36958 16.8932 6.85454 16.5 6.10876C18.494 7.29452 19.0463 9.99366 19.1961 11.3542C18.9589 11.0515 18.6562 10.8299 18.3036 10.7082Z" fill="#202020"/>
<path d="M15.1325 13.117C14.5771 14.7209 15.067 16.3435 16.2215 16.7429C17.3761 17.1423 18.7616 16.1656 19.3139 14.5617C19.8662 12.9578 19.3794 11.3352 18.2248 10.9358C17.0703 10.5364 15.6848 11.5131 15.1325 13.117Z" fill="#202020"/>
<path d="M11.888 8.13075C12.0097 8.12451 12.1283 8.13075 12.2468 8.14635C12.5682 8.19316 12.874 8.32422 13.1549 8.52392C13.1424 7.0979 14.3188 4.82313 14.9054 4.21777C12.6619 4.79817 11.3762 7.2352 10.852 8.49896C11.1641 8.27429 11.5167 8.14947 11.888 8.13075Z" fill="#202020"/>
<path d="M14.2589 11.329C14.34 13.0233 13.4195 14.4462 12.1994 14.5055C10.9793 14.5648 9.92464 13.2386 9.84039 11.5443C9.75614 9.84988 10.6798 8.42698 11.8998 8.3677C13.1199 8.30841 14.1746 9.63458 14.2589 11.329Z" fill="#202020"/>
<path d="M5.61144 27.2465C6.43522 27.259 7.27461 27.1029 8.07967 26.7566C8.25129 26.6817 8.41979 26.6006 8.58205 26.5101C7.17787 26.9656 5.70193 26.8752 4.41632 26.3353C4.26863 26.2063 4.12197 26.0732 3.97635 25.9359C4.60667 27.3495 5.84859 28.0827 7.33702 28.2013C6.7691 27.9454 6.18871 27.6303 5.61144 27.2465Z" fill="#202020"/>
<path d="M5.73017 25.125C5.91739 25.1062 6.1015 25.0813 6.2856 25.047C5.31516 25.0438 4.39152 24.8067 3.57397 24.3885C3.59062 24.5675 3.61974 24.7547 3.66135 24.9502C4.31663 25.125 5.01248 25.1874 5.73017 25.125Z" fill="#202020"/>
<path d="M6.13885 20.5532C6.54139 20.8933 7.23099 21.2022 8.19208 20.9307C7.69593 20.9027 6.87839 21.015 6.38849 20.4252C6.37392 20.4336 6.35936 20.4408 6.3448 20.4471C6.28551 20.4783 6.21686 20.5157 6.13885 20.5532Z" fill="#202020"/>
<path d="M11.9713 20.5285C11.9713 20.5285 12.2365 20.5004 12.5735 20.4224C12.0087 19.9575 11.6686 20.1946 11.6686 20.1946C11.8277 20.3038 11.9401 20.3787 11.9713 20.5285Z" fill="#202020"/>
<path d="M11.5871 27.4056C11.1877 26.6443 10.1611 25.4523 9.07516 26.9969C9.25303 27.2184 9.56819 27.5211 9.97384 27.8394C10.0279 27.8207 10.082 27.8019 10.1361 27.7832C10.6478 27.6022 11.1346 27.4805 11.5871 27.4056Z" fill="#202020"/>
<path d="M18.4525 20.4474C17.2636 19.8202 16.3525 19.0775 15.8657 17.9136C15.304 16.575 13.8842 15.7075 12.3989 15.5858C10.9136 15.7075 9.49071 16.575 8.93215 17.9136C8.48282 18.9839 7.68088 19.6954 6.6293 20.2914C7.79009 20.2976 9.1381 19.1243 10.8044 19.2055C10.7545 19.2679 10.7077 19.3355 10.664 19.4083C10.6224 19.4832 10.586 19.5591 10.5548 19.6361C10.6921 19.4645 10.8606 19.3272 11.0447 19.2242C11.7405 19.3084 12.4894 19.6236 13.3038 20.3351C13.2445 20.6097 13.2445 20.6097 13.2445 20.6097C13.7188 20.7594 13.9279 20.7969 14.8671 20.9685C14.7423 20.981 14.6175 21.0059 14.4958 21.0465C14.4376 21.0652 14.3814 21.086 14.3273 21.1089C14.5926 21.0496 14.8578 21.0496 15.1105 21.1027C15.0263 21.992 14.6955 23.8393 13.126 24.8534C13.9622 23.4648 13.7188 22.8033 13.6627 22.4694C13.8093 22.4101 14.1931 22.2479 14.5738 21.9327C13.8842 22.3321 12.92 22.4476 11.6999 22.8407C10.7233 23.1528 10.5516 23.6645 10.3956 24.014C10.9511 23.5366 11.441 23.418 12.3365 23.2932C12.0557 23.521 10.2022 23.8923 10.9791 25.3464C11.1944 25.7521 11.65 26.114 12.0713 26.2451C12.4395 25.9487 12.686 25.3433 12.686 25.3433C12.6485 25.6179 12.5893 25.9549 12.452 26.2919C12.4832 26.2877 12.5133 26.2825 12.5425 26.2763C13.0604 26.1515 13.4318 25.2278 13.4318 25.2278C13.3444 25.8519 13.1509 26.7943 12.1961 27.3279C12.2647 27.3216 12.3323 27.3164 12.3989 27.3123C13.0667 27.3528 13.8312 27.487 14.6612 27.7834C17.4571 28.7726 20.1593 28.1017 20.9987 25.4619C22.0628 22.123 19.2856 20.8905 18.4525 20.4474Z" fill="#202020"/>
</svg>
