<svg width="57" height="57" viewBox="0 0 57 57" fill="none" xmlns="http://www.w3.org/2000/svg">
<rect x="1.36743" y="1.58679" width="54.5" height="54.5" rx="11.25" fill="white"/>
<rect x="1.36743" y="1.58679" width="54.5" height="54.5" rx="11.25" stroke="#CACCC7" stroke-width="1.5"/>
<path d="M37.7023 20.4592C38.3177 20.4592 38.7819 20.999 38.5336 22.003L35.5215 36.1997C35.311 37.2091 34.701 37.4521 33.8589 36.9824L26.6742 31.6762C26.6464 31.6562 26.6237 31.6299 26.608 31.5994C26.5923 31.5689 26.5842 31.5351 26.5842 31.5008C26.5842 31.4665 26.5923 31.4327 26.608 31.4022C26.6237 31.3717 26.6464 31.3453 26.6742 31.3254L32.9709 25.833C33.3488 25.4983 32.8899 25.3363 32.3933 25.6386L23.9806 30.208C23.9491 30.2286 23.9132 30.2417 23.8758 30.2464C23.8384 30.2511 23.8004 30.2472 23.7647 30.235L19.3438 28.8369C18.3613 28.5508 18.3613 27.876 19.5651 27.3956L37.2543 20.5726C37.3945 20.5053 37.5469 20.4667 37.7023 20.4592Z" stroke="black" stroke-width="1.5" stroke-linecap="round" stroke-linejoin="round"/>
</svg>
